<svg xmlns="http://www.w3.org/2000/svg" xmlns:svg="http://www.w3.org/2000/svg" xmlns:xlink="http://www.w3.org/1999/xlink" id="svg2" width="3155.086" height="224.954" version="1.1" viewBox="0 0 3155.086 224.954"><title id="title4979">Abstract Landscape</title><defs id="defs4"><linearGradient id="linearGradient7274"><stop id="stop7276" offset="0" style="stop-color:#000"/><stop id="stop7278" offset="1" style="stop-color:navy"/></linearGradient><linearGradient id="linearGradient4358"><stop id="stop4360" offset="0" style="stop-color:#f6ffd5"/><stop id="stop4362" offset="1" style="stop-color:#ffb100"/></linearGradient><linearGradient id="linearGradient3874"><stop id="stop3876" offset="0" style="stop-color:#a05a2c"/><stop id="stop3878" offset="1" style="stop-color:#520"/></linearGradient><linearGradient id="linearGradient3853"><stop id="stop3855" offset="0" style="stop-color:#338000"/><stop id="stop3857" offset="1" style="stop-color:#cf0"/></linearGradient><clipPath id="clipPath6971" clipPathUnits="userSpaceOnUse"><rect id="rect6973" width="999.88" height="699.94" x=".059" y="352.42" rx="60.526" ry="60.528" style="opacity:.37019001;fill:#ff0"/></clipPath><clipPath id="clipPath6975" clipPathUnits="userSpaceOnUse"><rect id="rect6977" width="999.88" height="699.94" x=".059" y=".059" rx="60.526" ry="60.528" style="opacity:.37019001;fill:#ff0"/></clipPath><clipPath id="clipPath6979" clipPathUnits="userSpaceOnUse"><rect id="rect6981" width="999.88" height="699.94" x=".059" y="352.42" rx="60.526" ry="60.528" style="opacity:.37019001;fill:#ff0"/></clipPath><clipPath id="clipPath6983" clipPathUnits="userSpaceOnUse"><rect id="rect6985" width="999.88" height="699.94" x=".059" y="352.42" rx="60.526" ry="60.528" style="opacity:.37019001;fill:#ff0"/></clipPath><clipPath id="clipPath6987" clipPathUnits="userSpaceOnUse"><rect id="rect6989" width="1000" height="700" x="0" y="352.36" rx="60.533" ry="60.533" style="opacity:.37019001;fill:#ff0"/></clipPath><clipPath id="clipPath6991" clipPathUnits="userSpaceOnUse"><rect id="rect6993" width="676.54" height="473.59" x="58.252" y="4.207" rx="40.953" ry="40.954" style="opacity:.37019001;fill:#ff0"/></clipPath><clipPath id="clipPath6995" clipPathUnits="userSpaceOnUse"><rect id="rect6997" width="1000" height="700" x="0" y="352.36" rx="60.533" ry="60.533" style="opacity:.37019001;fill:#ff0"/></clipPath><clipPath id="clipPath6999" clipPathUnits="userSpaceOnUse"><rect id="rect7001" width="999.88" height="699.94" x=".059" y="352.42" rx="60.526" ry="60.528" style="opacity:.37019001;fill:#ff0"/></clipPath><linearGradient id="linearGradient5827" x1="794.78" x2="802.77" y1="640.87" y2="378.4" gradientTransform="matrix(-2.1779,-0.15886,-0.35033,0.71463,2289,613.59)" gradientUnits="userSpaceOnUse"><stop id="stop3827" offset="0" style="stop-color:#250"/><stop id="stop3829" offset="1" style="stop-color:#d4ff2a"/></linearGradient><linearGradient id="linearGradient5829" x1="595.25" x2="595.25" y1="568.52" y2="700.32" gradientTransform="matrix(-1,0,0,1,910.98,-101.48)" gradientUnits="userSpaceOnUse" xlink:href="#linearGradient4358"/><linearGradient id="linearGradient5839" x1="786.92" x2="831.08" y1="784.19" y2="427.3" gradientTransform="matrix(2.8523,-0.13595,0.45882,0.61158,-2177.2,364.11)" gradientUnits="userSpaceOnUse"><stop id="stop3819" offset="0" style="stop-color:#050"/><stop id="stop3821" offset="1" style="stop-color:#df5"/></linearGradient><linearGradient id="linearGradient5841" x1="595.25" x2="595.25" y1="568.52" y2="700.32" gradientUnits="userSpaceOnUse" xlink:href="#linearGradient4358"/><linearGradient id="linearGradient3622" x1="786.92" x2="831.08" y1="784.19" y2="427.3" gradientTransform="matrix(2.8523,-0.13595,0.45882,0.61158,-2177.2,364.11)" gradientUnits="userSpaceOnUse" xlink:href="#linearGradient5839"/><linearGradient id="linearGradient3624" x1="595.25" x2="595.25" y1="568.52" y2="700.32" gradientUnits="userSpaceOnUse" xlink:href="#linearGradient4358"/><linearGradient id="linearGradient3634" x1="794.78" x2="802.77" y1="640.87" y2="378.4" gradientTransform="matrix(-2.1779,-0.15886,-0.35033,0.71463,2289,613.59)" gradientUnits="userSpaceOnUse" xlink:href="#linearGradient5827"/><linearGradient id="linearGradient3636" x1="595.25" x2="595.25" y1="568.52" y2="700.32" gradientTransform="matrix(-1,0,0,1,910.98,-101.48)" gradientUnits="userSpaceOnUse" xlink:href="#linearGradient4358"/><linearGradient id="linearGradient3650" x1="794.78" x2="802.77" y1="640.87" y2="378.4" gradientTransform="matrix(-2.1779,-0.15886,-0.35033,0.71463,2289,613.59)" gradientUnits="userSpaceOnUse" xlink:href="#linearGradient5827"/><linearGradient id="linearGradient3652" x1="786.92" x2="831.08" y1="784.19" y2="427.3" gradientTransform="matrix(2.8523,-0.13595,0.45882,0.61158,-2177.2,364.11)" gradientUnits="userSpaceOnUse" xlink:href="#linearGradient5839"/><linearGradient id="linearGradient3664" x1="794.78" x2="802.77" y1="640.87" y2="378.4" gradientTransform="matrix(-2.1779,-0.15886,-0.35033,0.71463,2289,613.59)" gradientUnits="userSpaceOnUse" xlink:href="#linearGradient5827"/><linearGradient id="linearGradient3666" x1="595.25" x2="595.25" y1="568.52" y2="700.32" gradientTransform="matrix(-1,0,0,1,910.98,-101.48)" gradientUnits="userSpaceOnUse" xlink:href="#linearGradient4358"/><linearGradient id="linearGradient3732" x1="794.78" x2="802.77" y1="640.87" y2="378.4" gradientTransform="matrix(-2.1779,-0.15886,-0.35033,0.71463,2289,613.59)" gradientUnits="userSpaceOnUse" xlink:href="#linearGradient5827"/><linearGradient id="linearGradient3734" x1="595.25" x2="595.25" y1="568.52" y2="700.32" gradientTransform="matrix(-1,0,0,1,910.98,-101.48)" gradientUnits="userSpaceOnUse" xlink:href="#linearGradient4358"/><linearGradient id="linearGradient3736" x1="794.78" x2="802.77" y1="640.87" y2="378.4" gradientTransform="matrix(-2.1779,-0.15886,-0.35033,0.71463,2289,613.59)" gradientUnits="userSpaceOnUse" xlink:href="#linearGradient5827"/><linearGradient id="linearGradient3738" x1="595.25" x2="595.25" y1="568.52" y2="700.32" gradientTransform="matrix(-1,0,0,1,910.98,-101.48)" gradientUnits="userSpaceOnUse" xlink:href="#linearGradient4358"/><linearGradient id="linearGradient3740" x1="786.92" x2="831.08" y1="784.19" y2="427.3" gradientTransform="matrix(2.8523,-0.13595,0.45882,0.61158,-2177.2,364.11)" gradientUnits="userSpaceOnUse" xlink:href="#linearGradient5839"/><linearGradient id="linearGradient3742" x1="595.25" x2="595.25" y1="568.52" y2="700.32" gradientUnits="userSpaceOnUse" xlink:href="#linearGradient4358"/><linearGradient id="linearGradient3744" x1="794.78" x2="802.77" y1="640.87" y2="378.4" gradientTransform="matrix(-2.1779,-0.15886,-0.35033,0.71463,2289,613.59)" gradientUnits="userSpaceOnUse" xlink:href="#linearGradient5827"/><linearGradient id="linearGradient3746" x1="595.25" x2="595.25" y1="568.52" y2="700.32" gradientTransform="matrix(-1,0,0,1,910.98,-101.48)" gradientUnits="userSpaceOnUse" xlink:href="#linearGradient4358"/><linearGradient id="linearGradient3748" x1="786.92" x2="831.08" y1="784.19" y2="427.3" gradientTransform="matrix(2.8523,-0.13595,0.45882,0.61158,-2177.2,364.11)" gradientUnits="userSpaceOnUse" xlink:href="#linearGradient5839"/><linearGradient id="linearGradient3750" x1="595.25" x2="595.25" y1="568.52" y2="700.32" gradientUnits="userSpaceOnUse" xlink:href="#linearGradient4358"/><linearGradient id="linearGradient3902" x1="794.78" x2="802.77" y1="640.87" y2="378.4" gradientTransform="matrix(-2.1779,-0.15886,-0.35033,0.71463,2289,613.59)" gradientUnits="userSpaceOnUse" xlink:href="#linearGradient5827"/><linearGradient id="linearGradient3904" x1="595.25" x2="595.25" y1="568.52" y2="700.32" gradientTransform="matrix(-1,0,0,1,910.98,-101.48)" gradientUnits="userSpaceOnUse" xlink:href="#linearGradient4358"/><linearGradient id="linearGradient3906" x1="794.78" x2="802.77" y1="640.87" y2="378.4" gradientTransform="matrix(-2.1779,-0.15886,-0.35033,0.71463,2289,613.59)" gradientUnits="userSpaceOnUse" xlink:href="#linearGradient5827"/><linearGradient id="linearGradient3908" x1="595.25" x2="595.25" y1="568.52" y2="700.32" gradientTransform="matrix(-1,0,0,1,910.98,-101.48)" gradientUnits="userSpaceOnUse" xlink:href="#linearGradient4358"/><linearGradient id="linearGradient3910" x1="786.92" x2="831.08" y1="784.19" y2="427.3" gradientTransform="matrix(2.8523,-0.13595,0.45882,0.61158,-2177.2,364.11)" gradientUnits="userSpaceOnUse" xlink:href="#linearGradient5839"/><linearGradient id="linearGradient3912" x1="595.25" x2="595.25" y1="568.52" y2="700.32" gradientUnits="userSpaceOnUse" xlink:href="#linearGradient4358"/><linearGradient id="linearGradient3914" x1="794.78" x2="802.77" y1="640.87" y2="378.4" gradientTransform="matrix(-2.1779,-0.15886,-0.35033,0.71463,2289,613.59)" gradientUnits="userSpaceOnUse" xlink:href="#linearGradient5827"/><linearGradient id="linearGradient3916" x1="595.25" x2="595.25" y1="568.52" y2="700.32" gradientTransform="matrix(-1,0,0,1,910.98,-101.48)" gradientUnits="userSpaceOnUse" xlink:href="#linearGradient4358"/><linearGradient id="linearGradient3918" x1="786.92" x2="831.08" y1="784.19" y2="427.3" gradientTransform="matrix(2.8523,-0.13595,0.45882,0.61158,-2177.2,364.11)" gradientUnits="userSpaceOnUse" xlink:href="#linearGradient5839"/><linearGradient id="linearGradient3920" x1="595.25" x2="595.25" y1="568.52" y2="700.32" gradientUnits="userSpaceOnUse" xlink:href="#linearGradient4358"/><linearGradient id="linearGradient3922" x1="794.78" x2="802.77" y1="640.87" y2="378.4" gradientTransform="matrix(-2.1779,-0.15886,-0.35033,0.71463,2289,613.59)" gradientUnits="userSpaceOnUse" xlink:href="#linearGradient5827"/><linearGradient id="linearGradient3924" x1="595.25" x2="595.25" y1="568.52" y2="700.32" gradientTransform="matrix(-1,0,0,1,910.98,-101.48)" gradientUnits="userSpaceOnUse" xlink:href="#linearGradient4358"/><linearGradient id="linearGradient3926" x1="794.78" x2="802.77" y1="640.87" y2="378.4" gradientTransform="matrix(-2.1779,-0.15886,-0.35033,0.71463,2289,613.59)" gradientUnits="userSpaceOnUse" xlink:href="#linearGradient5827"/><linearGradient id="linearGradient3928" x1="595.25" x2="595.25" y1="568.52" y2="700.32" gradientTransform="matrix(-1,0,0,1,910.98,-101.48)" gradientUnits="userSpaceOnUse" xlink:href="#linearGradient4358"/><linearGradient id="linearGradient3930" x1="786.92" x2="831.08" y1="784.19" y2="427.3" gradientTransform="matrix(2.8523,-0.13595,0.45882,0.61158,-2177.2,364.11)" gradientUnits="userSpaceOnUse" xlink:href="#linearGradient5839"/><linearGradient id="linearGradient3932" x1="595.25" x2="595.25" y1="568.52" y2="700.32" gradientUnits="userSpaceOnUse" xlink:href="#linearGradient4358"/><linearGradient id="linearGradient3934" x1="794.78" x2="802.77" y1="640.87" y2="378.4" gradientTransform="matrix(-2.1779,-0.15886,-0.35033,0.71463,2289,613.59)" gradientUnits="userSpaceOnUse" xlink:href="#linearGradient5827"/><linearGradient id="linearGradient3936" x1="595.25" x2="595.25" y1="568.52" y2="700.32" gradientTransform="matrix(-1,0,0,1,910.98,-101.48)" gradientUnits="userSpaceOnUse" xlink:href="#linearGradient4358"/><linearGradient id="linearGradient3938" x1="786.92" x2="831.08" y1="784.19" y2="427.3" gradientTransform="matrix(2.8523,-0.13595,0.45882,0.61158,-2177.2,364.11)" gradientUnits="userSpaceOnUse" xlink:href="#linearGradient5839"/><linearGradient id="linearGradient3940" x1="595.25" x2="595.25" y1="568.52" y2="700.32" gradientUnits="userSpaceOnUse" xlink:href="#linearGradient4358"/></defs><g id="layer1" transform="translate(0.04630234,-827.4171)"><g id="g3942"><g id="g3771"><g id="g3668"><g id="g3656" clip-path="url(#clipPath6983)" transform="matrix(-0.790079,0,0,0.50972097,790.03097,425.95577)"><path id="path3658" d="m 0,787.65 0,218.43 1000,0 0,-82.17 C 838.3,871.24 571.64,825.08 259.12,801.32 170.41,794.57 83.53,790.05 0,787.61 Z" clip-path="none" style="fill:#f6ffd5"/><path id="path3660" d="m 0,796.55 0,209.53 1000,0 0,-78.82 C 838.3,876.73 571.64,832.46 259.12,809.66 170.41,803.19 83.53,798.85 0,796.51 Z" clip-path="none" style="fill:url(#linearGradient3664)"/><path id="path3662" d="m 1.625,444.25 0,154.28 12.656,0 0,-153.91 C 10.063,444.5 5.8264,444.37 1.625,444.25 Z m 23.5,0.71875 0,153.56 28.938,0 0,-152.56 c -9.6829,-0.36496 -19.335,-0.68751 -28.938,-1 z m 41.562,1.5 0,152.06 75.906,0 0,-148.53 c -25.522,-1.3549 -50.856,-2.5313 -75.906,-3.5312 z m 104.81,5.125 0,146.94 19.906,0 0,-145.75 c -6.6554,-0.40888 -13.277,-0.80276 -19.906,-1.1875 z m 30.75,1.875 0,145.06 19.875,0 0,-143.78 c -6.6445,-0.44293 -13.254,-0.8623 -19.875,-1.2812 z m 36.125,2.4062 0,142.66 47,0 0,-139.22 c -8.7188,-0.67501 -17.457,-1.3274 -26.25,-1.9688 -6.9338,-0.50576 -13.839,-0.98903 -20.75,-1.4688 z m 65.062,4.875 0,137.78 12.656,0 0,-136.75 c -4.2006,-0.34755 -8.4372,-0.69144 -12.656,-1.0312 z m 50.594,4.3125 0,133.47 19.875,0 0,-131.66 c -6.5848,-0.61253 -13.24,-1.219 -19.875,-1.8125 z m 48.812,4.5625 0,128.91 28.906,0 0,-126 c -9.5774,-0.99385 -19.209,-1.9527 -28.906,-2.9062 z m 45.188,4.625 0,124.28 46.969,0 0,-119.04 c -15.473,-1.7979 -31.141,-3.558 -46.969,-5.25 z m 59.625,6.75 0,117.53 12.656,0 0,-116 c -4.22,-0.52 -8.42,-1.04 -12.66,-1.54 z m 23.5,2.8438 0,114.69 28.906,0 0,-111.03 c -9.5534,-1.2412 -19.195,-2.4552 -28.906,-3.6562 z m 46.969,6.0625 0,108.62 75.906,0 0,-97.812 c -24.654,-3.7518 -49.972,-7.3385 -75.906,-10.812 z m 84.938,12.188 0,96.438 12.656,0 0,-94.438 c -4.2117,-0.66481 -8.4038,-1.343 -12.656,-2 z m 45.188,7.25 0,89.188 19.875,0 0,-85.812 c -6.5762,-1.1355 -13.185,-2.2588 -19.875,-3.375 z m 27.12,4.65 0,84.531 10.844,0 0,-82.625 c -3.6,-0.65 -7.21,-1.27 -10.84,-1.91 z m 23.469,4.1875 0,80.344 47,0 0,-71.406 c -15.29,-3.0357 -30.941,-6.011 -47,-8.9375 z m 59.656,11.469 0,68.875 12.656,0 0,-66.25 c -4.2054,-0.87624 -8.3864,-1.7568 -12.656,-2.625 z m 43.375,9.2188 0,59.656 28.906,0 0,-53.062 c -9.4433,-2.2236 -19.059,-4.4126 -28.906,-6.5938 z" transform="translate(0,352.36)" style="opacity:.13942003;fill:url(#linearGradient3666)"/></g><g id="g3626" clip-path="url(#clipPath6983)" transform="matrix(0.790079,0,0,0.50972097,-0.04636338,425.95577)"><path style="fill:#f6ffd5" id="path3628" d="m 0,787.65 0,218.43 1000,0 0,-82.17 C 838.3,871.24 571.64,825.08 259.12,801.32 170.41,794.57 83.53,790.05 0,787.61 Z" clip-path="none"/><path style="fill:url(#linearGradient3634)" id="path3630" d="m 0,796.55 0,209.53 1000,0 0,-78.82 C 838.3,876.73 571.64,832.46 259.12,809.66 170.41,803.19 83.53,798.85 0,796.51 Z" clip-path="none"/><path style="opacity:.13942003;fill:url(#linearGradient3636)" id="path3632" d="m 1.625,444.25 0,154.28 12.656,0 0,-153.91 C 10.063,444.5 5.8264,444.37 1.625,444.25 Z m 23.5,0.71875 0,153.56 28.938,0 0,-152.56 c -9.6829,-0.36496 -19.335,-0.68751 -28.938,-1 z m 41.562,1.5 0,152.06 75.906,0 0,-148.53 c -25.522,-1.3549 -50.856,-2.5313 -75.906,-3.5312 z m 104.81,5.125 0,146.94 19.906,0 0,-145.75 c -6.6554,-0.40888 -13.277,-0.80276 -19.906,-1.1875 z m 30.75,1.875 0,145.06 19.875,0 0,-143.78 c -6.6445,-0.44293 -13.254,-0.8623 -19.875,-1.2812 z m 36.125,2.4062 0,142.66 47,0 0,-139.22 c -8.7188,-0.67501 -17.457,-1.3274 -26.25,-1.9688 -6.9338,-0.50576 -13.839,-0.98903 -20.75,-1.4688 z m 65.062,4.875 0,137.78 12.656,0 0,-136.75 c -4.2006,-0.34755 -8.4372,-0.69144 -12.656,-1.0312 z m 50.594,4.3125 0,133.47 19.875,0 0,-131.66 c -6.5848,-0.61253 -13.24,-1.219 -19.875,-1.8125 z m 48.812,4.5625 0,128.91 28.906,0 0,-126 c -9.5774,-0.99385 -19.209,-1.9527 -28.906,-2.9062 z m 45.188,4.625 0,124.28 46.969,0 0,-119.04 c -15.473,-1.7979 -31.141,-3.558 -46.969,-5.25 z m 59.625,6.75 0,117.53 12.656,0 0,-116 c -4.22,-0.52 -8.42,-1.04 -12.66,-1.54 z m 23.5,2.8438 0,114.69 28.906,0 0,-111.03 c -9.5534,-1.2412 -19.195,-2.4552 -28.906,-3.6562 z m 46.969,6.0625 0,108.62 75.906,0 0,-97.812 c -24.654,-3.7518 -49.972,-7.3385 -75.906,-10.812 z m 84.938,12.188 0,96.438 12.656,0 0,-94.438 c -4.2117,-0.66481 -8.4038,-1.343 -12.656,-2 z m 45.188,7.25 0,89.188 19.875,0 0,-85.812 c -6.5762,-1.1355 -13.185,-2.2588 -19.875,-3.375 z m 27.12,4.65 0,84.531 10.844,0 0,-82.625 c -3.6,-0.65 -7.21,-1.27 -10.84,-1.91 z m 23.469,4.1875 0,80.344 47,0 0,-71.406 c -15.29,-3.0357 -30.941,-6.011 -47,-8.9375 z m 59.656,11.469 0,68.875 12.656,0 0,-66.25 c -4.2054,-0.87624 -8.3864,-1.7568 -12.656,-2.625 z m 43.375,9.2188 0,59.656 28.906,0 0,-53.062 c -9.4433,-2.2236 -19.059,-4.4126 -28.906,-6.5938 z" transform="translate(0,352.36)"/></g><g id="g3614" clip-path="url(#clipPath6979)" transform="matrix(0.790079,0,0,0.50972097,-0.04636338,443.95577)"><path style="fill:#f6ffd5" id="path3616" d="M 990.5,862.4 C 831.24,862.76 659.02,867.15 481.28,876.04 308.16,884.69 145.78,896.82 0,911.35 l 0,141.01 1000,0 0,-190 c -3.1699,0.004 -6.3197,-0.006 -9.5,0 z" clip-path="none"/><path style="fill:url(#linearGradient3622)" id="path3618" d="m 990.5,518.94 c -159.26,0.3432 -331.48,4.5284 -509.22,13 C 308.16,540.19 145.78,551.75 0,565.59 L 0,700 l 1000,0 0,-181.06 c -3.1699,0.004 -6.3197,-0.006 -9.5,0 z" clip-path="none" transform="translate(0,352.36)"/><path style="opacity:.13942003;fill:url(#linearGradient3624)" id="path3620" d="m 979.81,518.97 c -15.555,0.0501 -31.209,0.12655 -47,0.25 l 0,180.78 47,0 0,-181.03 z m -70.469,0.46875 c -4.2168,0.0424 -8.424,0.0774 -12.656,0.125 l 0,180.44 12.656,0 0,-180.56 z m -23.5,0.28125 c -9.61,0.11793 -19.251,0.26135 -28.938,0.40625 l 0,179.88 28.938,0 0,-180.28 z m -41.562,0.59375 c -25.068,0.40409 -50.377,0.88261 -75.906,1.4688 l 0,178.22 75.906,0 0,-179.69 z m -104.81,2.1562 c -6.6216,0.16893 -13.257,0.35002 -19.906,0.53125 l 0,177 19.906,0 0,-177.53 z m -30.75,0.84375 c -6.6077,0.18637 -13.242,0.36395 -19.875,0.5625 l 0,176.12 19.875,0 0,-176.69 z m -36.125,1.0625 c -15.596,0.48876 -31.276,1.0374 -47,1.5938 l 0,174.04 47,0 0,-175.62 z m -65.062,2.2188 c -4.2112,0.1555 -8.4366,0.33963 -12.656,0.5 l 0,172.91 12.656,0 0,-173.41 z m -50.594,2 c -6.6152,0.27279 -13.242,0.55901 -19.875,0.84375 l 0,170.56 19.875,0 0,-171.41 z m -48.812,2.0938 c -8.9396,0.4057 -17.875,0.82253 -26.844,1.25 -0.68985,0.0329 -1.373,0.0608 -2.0625,0.0937 l 0,167.97 28.906,0 0,-169.31 z m -45.188,2.1562 c -15.742,0.77495 -31.414,1.5775 -46.969,2.4062 l 0,164.75 46.969,0 0,-167.16 z m -59.625,3.0625 c -4.2204,0.22954 -8.4504,0.45408 -12.656,0.6875 l 0,163.41 12.656,0 0,-164.09 z m -23.5,1.3125 c -9.671,0.54599 -19.315,1.09 -28.906,1.6562 l 0,161.12 28.906,0 0,-162.78 z m -46.969,2.75 c -25.599,1.553 -50.918,3.1832 -75.906,4.875 l 0,155.16 75.906,0 0,-160.03 z m -84.938,5.5 c -4.22,0.28935 -8.4547,0.55057 -12.656,0.84375 l 0,153.69 12.656,0 0,-154.53 z m -45.188,3.1875 c -6.6579,0.48571 -13.266,0.97355 -19.875,1.4688 l 0,149.88 19.875,0 0,-151.34 z m -27.125,2 c -3.6237,0.27417 -7.2353,0.56676 -10.844,0.84375 l 0,148.5 10.844,0 0,-149.34 z m -23.469,1.8125 c -15.817,1.2346 -31.489,2.4939 -47,3.7812 l 0,143.75 47,0 0,-147.53 z m -59.656,4.8438 c -4.2275,0.35667 -8.4526,0.73325 -12.656,1.0938 l 0,141.59 12.656,0 0,-142.69 z m -43.375,3.75 c -9.7052,0.86577 -19.337,1.7705 -28.906,2.6562 l 0,136.29 28.9,0 0,-138.94 z" transform="translate(0,352.36)"/></g><g id="g4986" clip-path="url(#clipPath6983)" transform="matrix(0.790079,0,0,0.50972097,-0.04636338,515.95577)"><path id="path3835" d="m 0,787.65 0,218.43 1000,0 0,-82.17 C 838.3,871.24 571.64,825.08 259.12,801.32 170.41,794.57 83.53,790.05 0,787.61 Z" clip-path="none" style="fill:#f6ffd5"/><path id="path3805" d="m 0,796.55 0,209.53 1000,0 0,-78.82 C 838.3,876.73 571.64,832.46 259.12,809.66 170.41,803.19 83.53,798.85 0,796.51 Z" clip-path="none" style="fill:url(#linearGradient3650)"/><path id="path4972" d="m 1.625,444.25 0,154.28 12.656,0 0,-153.91 C 10.063,444.5 5.8264,444.37 1.625,444.25 Z m 23.5,0.71875 0,153.56 28.938,0 0,-152.56 c -9.6829,-0.36496 -19.335,-0.68751 -28.938,-1 z m 41.562,1.5 0,152.06 75.906,0 0,-148.53 c -25.522,-1.3549 -50.856,-2.5313 -75.906,-3.5312 z m 104.81,5.125 0,146.94 19.906,0 0,-145.75 c -6.6554,-0.40888 -13.277,-0.80276 -19.906,-1.1875 z m 30.75,1.875 0,145.06 19.875,0 0,-143.78 c -6.6445,-0.44293 -13.254,-0.8623 -19.875,-1.2812 z m 36.125,2.4062 0,142.66 47,0 0,-139.22 c -8.7188,-0.67501 -17.457,-1.3274 -26.25,-1.9688 -6.9338,-0.50576 -13.839,-0.98903 -20.75,-1.4688 z m 65.062,4.875 0,137.78 12.656,0 0,-136.75 c -4.2006,-0.34755 -8.4372,-0.69144 -12.656,-1.0312 z m 50.594,4.3125 0,133.47 19.875,0 0,-131.66 c -6.5848,-0.61253 -13.24,-1.219 -19.875,-1.8125 z m 48.812,4.5625 0,128.91 28.906,0 0,-126 c -9.5774,-0.99385 -19.209,-1.9527 -28.906,-2.9062 z m 45.188,4.625 0,124.28 46.969,0 0,-119.04 c -15.473,-1.7979 -31.141,-3.558 -46.969,-5.25 z m 59.625,6.75 0,117.53 12.656,0 0,-116 c -4.22,-0.52 -8.42,-1.04 -12.66,-1.54 z m 23.5,2.8438 0,114.69 28.906,0 0,-111.03 c -9.5534,-1.2412 -19.195,-2.4552 -28.906,-3.6562 z m 46.969,6.0625 0,108.62 75.906,0 0,-97.812 c -24.654,-3.7518 -49.972,-7.3385 -75.906,-10.812 z m 84.938,12.188 0,96.438 12.656,0 0,-94.438 c -4.2117,-0.66481 -8.4038,-1.343 -12.656,-2 z m 45.188,7.25 0,89.188 19.875,0 0,-85.812 c -6.5762,-1.1355 -13.185,-2.2588 -19.875,-3.375 z m 27.12,4.65 0,84.531 10.844,0 0,-82.625 c -3.6,-0.65 -7.21,-1.27 -10.84,-1.91 z m 23.469,4.1875 0,80.344 47,0 0,-71.406 c -15.29,-3.0357 -30.941,-6.011 -47,-8.9375 z m 59.656,11.469 0,68.875 12.656,0 0,-66.25 c -4.2054,-0.87624 -8.3864,-1.7568 -12.656,-2.625 z m 43.375,9.2188 0,59.656 28.906,0 0,-53.062 c -9.4433,-2.2236 -19.059,-4.4126 -28.906,-6.5938 z" transform="translate(0,352.36)" style="opacity:.13942003;fill:url(#linearGradient5829)"/></g><g id="g4981" clip-path="none" mask="none" transform="matrix(0.790079,0,0,0.50972097,-0.04636338,515.95577)"><path id="path3833" d="M 990.5,862.4 C 831.24,862.76 659.02,867.15 481.28,876.04 308.16,884.69 145.78,896.82 0,911.35 l 0,141.01 1000,0 0,-190 c -3.1699,0.004 -6.3197,-0.006 -9.5,0 z" clip-path="none" style="fill:#f6ffd5"/><path id="path2985" d="m 990.5,518.94 c -159.26,0.3432 -331.48,4.5284 -509.22,13 C 308.16,540.19 145.78,551.75 0,565.59 L 0,700 l 1000,0 0,-181.06 c -3.1699,0.004 -6.3197,-0.006 -9.5,0 z" clip-path="none" transform="translate(0,352.36)" style="fill:url(#linearGradient3652)"/><path id="rect4272" d="m 979.81,518.97 c -15.555,0.0501 -31.209,0.12655 -47,0.25 l 0,180.78 47,0 0,-181.03 z m -70.469,0.46875 c -4.2168,0.0424 -8.424,0.0774 -12.656,0.125 l 0,180.44 12.656,0 0,-180.56 z m -23.5,0.28125 c -9.61,0.11793 -19.251,0.26135 -28.938,0.40625 l 0,179.88 28.938,0 0,-180.28 z m -41.562,0.59375 c -25.068,0.40409 -50.377,0.88261 -75.906,1.4688 l 0,178.22 75.906,0 0,-179.69 z m -104.81,2.1562 c -6.6216,0.16893 -13.257,0.35002 -19.906,0.53125 l 0,177 19.906,0 0,-177.53 z m -30.75,0.84375 c -6.6077,0.18637 -13.242,0.36395 -19.875,0.5625 l 0,176.12 19.875,0 0,-176.69 z m -36.125,1.0625 c -15.596,0.48876 -31.276,1.0374 -47,1.5938 l 0,174.04 47,0 0,-175.62 z m -65.062,2.2188 c -4.2112,0.1555 -8.4366,0.33963 -12.656,0.5 l 0,172.91 12.656,0 0,-173.41 z m -50.594,2 c -6.6152,0.27279 -13.242,0.55901 -19.875,0.84375 l 0,170.56 19.875,0 0,-171.41 z m -48.812,2.0938 c -8.9396,0.4057 -17.875,0.82253 -26.844,1.25 -0.68985,0.0329 -1.373,0.0608 -2.0625,0.0937 l 0,167.97 28.906,0 0,-169.31 z m -45.188,2.1562 c -15.742,0.77495 -31.414,1.5775 -46.969,2.4062 l 0,164.75 46.969,0 0,-167.16 z m -59.625,3.0625 c -4.2204,0.22954 -8.4504,0.45408 -12.656,0.6875 l 0,163.41 12.656,0 0,-164.09 z m -23.5,1.3125 c -9.671,0.54599 -19.315,1.09 -28.906,1.6562 l 0,161.12 28.906,0 0,-162.78 z m -46.969,2.75 c -25.599,1.553 -50.918,3.1832 -75.906,4.875 l 0,155.16 75.906,0 0,-160.03 z m -84.938,5.5 c -4.22,0.28935 -8.4547,0.55057 -12.656,0.84375 l 0,153.69 12.656,0 0,-154.53 z m -45.188,3.1875 c -6.6579,0.48571 -13.266,0.97355 -19.875,1.4688 l 0,149.88 19.875,0 0,-151.34 z m -27.125,2 c -3.6237,0.27417 -7.2353,0.56676 -10.844,0.84375 l 0,148.5 10.844,0 0,-149.34 z m -23.469,1.8125 c -15.817,1.2346 -31.489,2.4939 -47,3.7812 l 0,143.75 47,0 0,-147.53 z m -59.656,4.8438 c -4.2275,0.35667 -8.4526,0.73325 -12.656,1.0938 l 0,141.59 12.656,0 0,-142.69 z m -43.375,3.75 c -9.7052,0.86577 -19.337,1.7705 -28.906,2.6562 l 0,136.29 28.9,0 0,-138.94 z" transform="translate(0,352.36)" style="opacity:.13942003;fill:url(#linearGradient5841)"/></g></g><g id="g3690" transform="matrix(-1,0,0,1,1577.9863,0)"><g id="g3692" clip-path="url(#clipPath6983)" transform="matrix(-0.790079,0,0,0.50972097,790.03097,425.95577)"><path style="fill:#f6ffd5" id="path3694" d="m 0,787.65 0,218.43 1000,0 0,-82.17 C 838.3,871.24 571.64,825.08 259.12,801.32 170.41,794.57 83.53,790.05 0,787.61 Z" clip-path="none"/><path style="fill:url(#linearGradient3732)" id="path3696" d="m 0,796.55 0,209.53 1000,0 0,-78.82 C 838.3,876.73 571.64,832.46 259.12,809.66 170.41,803.19 83.53,798.85 0,796.51 Z" clip-path="none"/><path style="opacity:.13942003;fill:url(#linearGradient3734)" id="path3698" d="m 1.625,444.25 0,154.28 12.656,0 0,-153.91 C 10.063,444.5 5.8264,444.37 1.625,444.25 Z m 23.5,0.71875 0,153.56 28.938,0 0,-152.56 c -9.6829,-0.36496 -19.335,-0.68751 -28.938,-1 z m 41.562,1.5 0,152.06 75.906,0 0,-148.53 c -25.522,-1.3549 -50.856,-2.5313 -75.906,-3.5312 z m 104.81,5.125 0,146.94 19.906,0 0,-145.75 c -6.6554,-0.40888 -13.277,-0.80276 -19.906,-1.1875 z m 30.75,1.875 0,145.06 19.875,0 0,-143.78 c -6.6445,-0.44293 -13.254,-0.8623 -19.875,-1.2812 z m 36.125,2.4062 0,142.66 47,0 0,-139.22 c -8.7188,-0.67501 -17.457,-1.3274 -26.25,-1.9688 -6.9338,-0.50576 -13.839,-0.98903 -20.75,-1.4688 z m 65.062,4.875 0,137.78 12.656,0 0,-136.75 c -4.2006,-0.34755 -8.4372,-0.69144 -12.656,-1.0312 z m 50.594,4.3125 0,133.47 19.875,0 0,-131.66 c -6.5848,-0.61253 -13.24,-1.219 -19.875,-1.8125 z m 48.812,4.5625 0,128.91 28.906,0 0,-126 c -9.5774,-0.99385 -19.209,-1.9527 -28.906,-2.9062 z m 45.188,4.625 0,124.28 46.969,0 0,-119.04 c -15.473,-1.7979 -31.141,-3.558 -46.969,-5.25 z m 59.625,6.75 0,117.53 12.656,0 0,-116 c -4.22,-0.52 -8.42,-1.04 -12.66,-1.54 z m 23.5,2.8438 0,114.69 28.906,0 0,-111.03 c -9.5534,-1.2412 -19.195,-2.4552 -28.906,-3.6562 z m 46.969,6.0625 0,108.62 75.906,0 0,-97.812 c -24.654,-3.7518 -49.972,-7.3385 -75.906,-10.812 z m 84.938,12.188 0,96.438 12.656,0 0,-94.438 c -4.2117,-0.66481 -8.4038,-1.343 -12.656,-2 z m 45.188,7.25 0,89.188 19.875,0 0,-85.812 c -6.5762,-1.1355 -13.185,-2.2588 -19.875,-3.375 z m 27.12,4.65 0,84.531 10.844,0 0,-82.625 c -3.6,-0.65 -7.21,-1.27 -10.84,-1.91 z m 23.469,4.1875 0,80.344 47,0 0,-71.406 c -15.29,-3.0357 -30.941,-6.011 -47,-8.9375 z m 59.656,11.469 0,68.875 12.656,0 0,-66.25 c -4.2054,-0.87624 -8.3864,-1.7568 -12.656,-2.625 z m 43.375,9.2188 0,59.656 28.906,0 0,-53.062 c -9.4433,-2.2236 -19.059,-4.4126 -28.906,-6.5938 z" transform="translate(0,352.36)"/></g><g id="g3700" clip-path="url(#clipPath6983)" transform="matrix(0.790079,0,0,0.50972097,-0.04636338,425.95577)"><path id="path3702" d="m 0,787.65 0,218.43 1000,0 0,-82.17 C 838.3,871.24 571.64,825.08 259.12,801.32 170.41,794.57 83.53,790.05 0,787.61 Z" clip-path="none" style="fill:#f6ffd5"/><path id="path3704" d="m 0,796.55 0,209.53 1000,0 0,-78.82 C 838.3,876.73 571.64,832.46 259.12,809.66 170.41,803.19 83.53,798.85 0,796.51 Z" clip-path="none" style="fill:url(#linearGradient3736)"/><path id="path3706" d="m 1.625,444.25 0,154.28 12.656,0 0,-153.91 C 10.063,444.5 5.8264,444.37 1.625,444.25 Z m 23.5,0.71875 0,153.56 28.938,0 0,-152.56 c -9.6829,-0.36496 -19.335,-0.68751 -28.938,-1 z m 41.562,1.5 0,152.06 75.906,0 0,-148.53 c -25.522,-1.3549 -50.856,-2.5313 -75.906,-3.5312 z m 104.81,5.125 0,146.94 19.906,0 0,-145.75 c -6.6554,-0.40888 -13.277,-0.80276 -19.906,-1.1875 z m 30.75,1.875 0,145.06 19.875,0 0,-143.78 c -6.6445,-0.44293 -13.254,-0.8623 -19.875,-1.2812 z m 36.125,2.4062 0,142.66 47,0 0,-139.22 c -8.7188,-0.67501 -17.457,-1.3274 -26.25,-1.9688 -6.9338,-0.50576 -13.839,-0.98903 -20.75,-1.4688 z m 65.062,4.875 0,137.78 12.656,0 0,-136.75 c -4.2006,-0.34755 -8.4372,-0.69144 -12.656,-1.0312 z m 50.594,4.3125 0,133.47 19.875,0 0,-131.66 c -6.5848,-0.61253 -13.24,-1.219 -19.875,-1.8125 z m 48.812,4.5625 0,128.91 28.906,0 0,-126 c -9.5774,-0.99385 -19.209,-1.9527 -28.906,-2.9062 z m 45.188,4.625 0,124.28 46.969,0 0,-119.04 c -15.473,-1.7979 -31.141,-3.558 -46.969,-5.25 z m 59.625,6.75 0,117.53 12.656,0 0,-116 c -4.22,-0.52 -8.42,-1.04 -12.66,-1.54 z m 23.5,2.8438 0,114.69 28.906,0 0,-111.03 c -9.5534,-1.2412 -19.195,-2.4552 -28.906,-3.6562 z m 46.969,6.0625 0,108.62 75.906,0 0,-97.812 c -24.654,-3.7518 -49.972,-7.3385 -75.906,-10.812 z m 84.938,12.188 0,96.438 12.656,0 0,-94.438 c -4.2117,-0.66481 -8.4038,-1.343 -12.656,-2 z m 45.188,7.25 0,89.188 19.875,0 0,-85.812 c -6.5762,-1.1355 -13.185,-2.2588 -19.875,-3.375 z m 27.12,4.65 0,84.531 10.844,0 0,-82.625 c -3.6,-0.65 -7.21,-1.27 -10.84,-1.91 z m 23.469,4.1875 0,80.344 47,0 0,-71.406 c -15.29,-3.0357 -30.941,-6.011 -47,-8.9375 z m 59.656,11.469 0,68.875 12.656,0 0,-66.25 c -4.2054,-0.87624 -8.3864,-1.7568 -12.656,-2.625 z m 43.375,9.2188 0,59.656 28.906,0 0,-53.062 c -9.4433,-2.2236 -19.059,-4.4126 -28.906,-6.5938 z" transform="translate(0,352.36)" style="opacity:.13942003;fill:url(#linearGradient3738)"/></g><g id="g3708" clip-path="url(#clipPath6979)" transform="matrix(0.790079,0,0,0.50972097,-0.04636338,443.95577)"><path id="path3710" d="M 990.5,862.4 C 831.24,862.76 659.02,867.15 481.28,876.04 308.16,884.69 145.78,896.82 0,911.35 l 0,141.01 1000,0 0,-190 c -3.1699,0.004 -6.3197,-0.006 -9.5,0 z" clip-path="none" style="fill:#f6ffd5"/><path id="path3712" d="m 990.5,518.94 c -159.26,0.3432 -331.48,4.5284 -509.22,13 C 308.16,540.19 145.78,551.75 0,565.59 L 0,700 l 1000,0 0,-181.06 c -3.1699,0.004 -6.3197,-0.006 -9.5,0 z" clip-path="none" transform="translate(0,352.36)" style="fill:url(#linearGradient3740)"/><path id="path3714" d="m 979.81,518.97 c -15.555,0.0501 -31.209,0.12655 -47,0.25 l 0,180.78 47,0 0,-181.03 z m -70.469,0.46875 c -4.2168,0.0424 -8.424,0.0774 -12.656,0.125 l 0,180.44 12.656,0 0,-180.56 z m -23.5,0.28125 c -9.61,0.11793 -19.251,0.26135 -28.938,0.40625 l 0,179.88 28.938,0 0,-180.28 z m -41.562,0.59375 c -25.068,0.40409 -50.377,0.88261 -75.906,1.4688 l 0,178.22 75.906,0 0,-179.69 z m -104.81,2.1562 c -6.6216,0.16893 -13.257,0.35002 -19.906,0.53125 l 0,177 19.906,0 0,-177.53 z m -30.75,0.84375 c -6.6077,0.18637 -13.242,0.36395 -19.875,0.5625 l 0,176.12 19.875,0 0,-176.69 z m -36.125,1.0625 c -15.596,0.48876 -31.276,1.0374 -47,1.5938 l 0,174.04 47,0 0,-175.62 z m -65.062,2.2188 c -4.2112,0.1555 -8.4366,0.33963 -12.656,0.5 l 0,172.91 12.656,0 0,-173.41 z m -50.594,2 c -6.6152,0.27279 -13.242,0.55901 -19.875,0.84375 l 0,170.56 19.875,0 0,-171.41 z m -48.812,2.0938 c -8.9396,0.4057 -17.875,0.82253 -26.844,1.25 -0.68985,0.0329 -1.373,0.0608 -2.0625,0.0937 l 0,167.97 28.906,0 0,-169.31 z m -45.188,2.1562 c -15.742,0.77495 -31.414,1.5775 -46.969,2.4062 l 0,164.75 46.969,0 0,-167.16 z m -59.625,3.0625 c -4.2204,0.22954 -8.4504,0.45408 -12.656,0.6875 l 0,163.41 12.656,0 0,-164.09 z m -23.5,1.3125 c -9.671,0.54599 -19.315,1.09 -28.906,1.6562 l 0,161.12 28.906,0 0,-162.78 z m -46.969,2.75 c -25.599,1.553 -50.918,3.1832 -75.906,4.875 l 0,155.16 75.906,0 0,-160.03 z m -84.938,5.5 c -4.22,0.28935 -8.4547,0.55057 -12.656,0.84375 l 0,153.69 12.656,0 0,-154.53 z m -45.188,3.1875 c -6.6579,0.48571 -13.266,0.97355 -19.875,1.4688 l 0,149.88 19.875,0 0,-151.34 z m -27.125,2 c -3.6237,0.27417 -7.2353,0.56676 -10.844,0.84375 l 0,148.5 10.844,0 0,-149.34 z m -23.469,1.8125 c -15.817,1.2346 -31.489,2.4939 -47,3.7812 l 0,143.75 47,0 0,-147.53 z m -59.656,4.8438 c -4.2275,0.35667 -8.4526,0.73325 -12.656,1.0938 l 0,141.59 12.656,0 0,-142.69 z m -43.375,3.75 c -9.7052,0.86577 -19.337,1.7705 -28.906,2.6562 l 0,136.29 28.9,0 0,-138.94 z" transform="translate(0,352.36)" style="opacity:.13942003;fill:url(#linearGradient3742)"/></g><g id="g3716" clip-path="url(#clipPath6983)" transform="matrix(0.790079,0,0,0.50972097,-0.04636338,515.95577)"><path style="fill:#f6ffd5" id="path3718" d="m 0,787.65 0,218.43 1000,0 0,-82.17 C 838.3,871.24 571.64,825.08 259.12,801.32 170.41,794.57 83.53,790.05 0,787.61 Z" clip-path="none"/><path style="fill:url(#linearGradient3744)" id="path3720" d="m 0,796.55 0,209.53 1000,0 0,-78.82 C 838.3,876.73 571.64,832.46 259.12,809.66 170.41,803.19 83.53,798.85 0,796.51 Z" clip-path="none"/><path style="opacity:.13942003;fill:url(#linearGradient3746)" id="path3722" d="m 1.625,444.25 0,154.28 12.656,0 0,-153.91 C 10.063,444.5 5.8264,444.37 1.625,444.25 Z m 23.5,0.71875 0,153.56 28.938,0 0,-152.56 c -9.6829,-0.36496 -19.335,-0.68751 -28.938,-1 z m 41.562,1.5 0,152.06 75.906,0 0,-148.53 c -25.522,-1.3549 -50.856,-2.5313 -75.906,-3.5312 z m 104.81,5.125 0,146.94 19.906,0 0,-145.75 c -6.6554,-0.40888 -13.277,-0.80276 -19.906,-1.1875 z m 30.75,1.875 0,145.06 19.875,0 0,-143.78 c -6.6445,-0.44293 -13.254,-0.8623 -19.875,-1.2812 z m 36.125,2.4062 0,142.66 47,0 0,-139.22 c -8.7188,-0.67501 -17.457,-1.3274 -26.25,-1.9688 -6.9338,-0.50576 -13.839,-0.98903 -20.75,-1.4688 z m 65.062,4.875 0,137.78 12.656,0 0,-136.75 c -4.2006,-0.34755 -8.4372,-0.69144 -12.656,-1.0312 z m 50.594,4.3125 0,133.47 19.875,0 0,-131.66 c -6.5848,-0.61253 -13.24,-1.219 -19.875,-1.8125 z m 48.812,4.5625 0,128.91 28.906,0 0,-126 c -9.5774,-0.99385 -19.209,-1.9527 -28.906,-2.9062 z m 45.188,4.625 0,124.28 46.969,0 0,-119.04 c -15.473,-1.7979 -31.141,-3.558 -46.969,-5.25 z m 59.625,6.75 0,117.53 12.656,0 0,-116 c -4.22,-0.52 -8.42,-1.04 -12.66,-1.54 z m 23.5,2.8438 0,114.69 28.906,0 0,-111.03 c -9.5534,-1.2412 -19.195,-2.4552 -28.906,-3.6562 z m 46.969,6.0625 0,108.62 75.906,0 0,-97.812 c -24.654,-3.7518 -49.972,-7.3385 -75.906,-10.812 z m 84.938,12.188 0,96.438 12.656,0 0,-94.438 c -4.2117,-0.66481 -8.4038,-1.343 -12.656,-2 z m 45.188,7.25 0,89.188 19.875,0 0,-85.812 c -6.5762,-1.1355 -13.185,-2.2588 -19.875,-3.375 z m 27.12,4.65 0,84.531 10.844,0 0,-82.625 c -3.6,-0.65 -7.21,-1.27 -10.84,-1.91 z m 23.469,4.1875 0,80.344 47,0 0,-71.406 c -15.29,-3.0357 -30.941,-6.011 -47,-8.9375 z m 59.656,11.469 0,68.875 12.656,0 0,-66.25 c -4.2054,-0.87624 -8.3864,-1.7568 -12.656,-2.625 z m 43.375,9.2188 0,59.656 28.906,0 0,-53.062 c -9.4433,-2.2236 -19.059,-4.4126 -28.906,-6.5938 z" transform="translate(0,352.36)"/></g><g id="g3724" clip-path="none" mask="none" transform="matrix(0.790079,0,0,0.50972097,-0.04636338,515.95577)"><path style="fill:#f6ffd5" id="path3726" d="M 990.5,862.4 C 831.24,862.76 659.02,867.15 481.28,876.04 308.16,884.69 145.78,896.82 0,911.35 l 0,141.01 1000,0 0,-190 c -3.1699,0.004 -6.3197,-0.006 -9.5,0 z" clip-path="none"/><path style="fill:url(#linearGradient3748)" id="path3728" d="m 990.5,518.94 c -159.26,0.3432 -331.48,4.5284 -509.22,13 C 308.16,540.19 145.78,551.75 0,565.59 L 0,700 l 1000,0 0,-181.06 c -3.1699,0.004 -6.3197,-0.006 -9.5,0 z" clip-path="none" transform="translate(0,352.36)"/><path style="opacity:.13942003;fill:url(#linearGradient3750)" id="path3730" d="m 979.81,518.97 c -15.555,0.0501 -31.209,0.12655 -47,0.25 l 0,180.78 47,0 0,-181.03 z m -70.469,0.46875 c -4.2168,0.0424 -8.424,0.0774 -12.656,0.125 l 0,180.44 12.656,0 0,-180.56 z m -23.5,0.28125 c -9.61,0.11793 -19.251,0.26135 -28.938,0.40625 l 0,179.88 28.938,0 0,-180.28 z m -41.562,0.59375 c -25.068,0.40409 -50.377,0.88261 -75.906,1.4688 l 0,178.22 75.906,0 0,-179.69 z m -104.81,2.1562 c -6.6216,0.16893 -13.257,0.35002 -19.906,0.53125 l 0,177 19.906,0 0,-177.53 z m -30.75,0.84375 c -6.6077,0.18637 -13.242,0.36395 -19.875,0.5625 l 0,176.12 19.875,0 0,-176.69 z m -36.125,1.0625 c -15.596,0.48876 -31.276,1.0374 -47,1.5938 l 0,174.04 47,0 0,-175.62 z m -65.062,2.2188 c -4.2112,0.1555 -8.4366,0.33963 -12.656,0.5 l 0,172.91 12.656,0 0,-173.41 z m -50.594,2 c -6.6152,0.27279 -13.242,0.55901 -19.875,0.84375 l 0,170.56 19.875,0 0,-171.41 z m -48.812,2.0938 c -8.9396,0.4057 -17.875,0.82253 -26.844,1.25 -0.68985,0.0329 -1.373,0.0608 -2.0625,0.0937 l 0,167.97 28.906,0 0,-169.31 z m -45.188,2.1562 c -15.742,0.77495 -31.414,1.5775 -46.969,2.4062 l 0,164.75 46.969,0 0,-167.16 z m -59.625,3.0625 c -4.2204,0.22954 -8.4504,0.45408 -12.656,0.6875 l 0,163.41 12.656,0 0,-164.09 z m -23.5,1.3125 c -9.671,0.54599 -19.315,1.09 -28.906,1.6562 l 0,161.12 28.906,0 0,-162.78 z m -46.969,2.75 c -25.599,1.553 -50.918,3.1832 -75.906,4.875 l 0,155.16 75.906,0 0,-160.03 z m -84.938,5.5 c -4.22,0.28935 -8.4547,0.55057 -12.656,0.84375 l 0,153.69 12.656,0 0,-154.53 z m -45.188,3.1875 c -6.6579,0.48571 -13.266,0.97355 -19.875,1.4688 l 0,149.88 19.875,0 0,-151.34 z m -27.125,2 c -3.6237,0.27417 -7.2353,0.56676 -10.844,0.84375 l 0,148.5 10.844,0 0,-149.34 z m -23.469,1.8125 c -15.817,1.2346 -31.489,2.4939 -47,3.7812 l 0,143.75 47,0 0,-147.53 z m -59.656,4.8438 c -4.2275,0.35667 -8.4526,0.73325 -12.656,1.0938 l 0,141.59 12.656,0 0,-142.69 z m -43.375,3.75 c -9.7052,0.86577 -19.337,1.7705 -28.906,2.6562 l 0,136.29 28.9,0 0,-138.94 z" transform="translate(0,352.36)"/></g></g></g><g id="g3815" transform="translate(1577.0067,0)"><g id="g3817"><g id="g3819" clip-path="url(#clipPath6983)" transform="matrix(-0.790079,0,0,0.50972097,790.03097,425.95577)"><path style="fill:#f6ffd5" id="path3821" d="m 0,787.65 0,218.43 1000,0 0,-82.17 C 838.3,871.24 571.64,825.08 259.12,801.32 170.41,794.57 83.53,790.05 0,787.61 Z" clip-path="none"/><path style="fill:url(#linearGradient3902)" id="path3823" d="m 0,796.55 0,209.53 1000,0 0,-78.82 C 838.3,876.73 571.64,832.46 259.12,809.66 170.41,803.19 83.53,798.85 0,796.51 Z" clip-path="none"/><path style="opacity:.13942003;fill:url(#linearGradient3904)" id="path3825" d="m 1.625,444.25 0,154.28 12.656,0 0,-153.91 C 10.063,444.5 5.8264,444.37 1.625,444.25 Z m 23.5,0.71875 0,153.56 28.938,0 0,-152.56 c -9.6829,-0.36496 -19.335,-0.68751 -28.938,-1 z m 41.562,1.5 0,152.06 75.906,0 0,-148.53 c -25.522,-1.3549 -50.856,-2.5313 -75.906,-3.5312 z m 104.81,5.125 0,146.94 19.906,0 0,-145.75 c -6.6554,-0.40888 -13.277,-0.80276 -19.906,-1.1875 z m 30.75,1.875 0,145.06 19.875,0 0,-143.78 c -6.6445,-0.44293 -13.254,-0.8623 -19.875,-1.2812 z m 36.125,2.4062 0,142.66 47,0 0,-139.22 c -8.7188,-0.67501 -17.457,-1.3274 -26.25,-1.9688 -6.9338,-0.50576 -13.839,-0.98903 -20.75,-1.4688 z m 65.062,4.875 0,137.78 12.656,0 0,-136.75 c -4.2006,-0.34755 -8.4372,-0.69144 -12.656,-1.0312 z m 50.594,4.3125 0,133.47 19.875,0 0,-131.66 c -6.5848,-0.61253 -13.24,-1.219 -19.875,-1.8125 z m 48.812,4.5625 0,128.91 28.906,0 0,-126 c -9.5774,-0.99385 -19.209,-1.9527 -28.906,-2.9062 z m 45.188,4.625 0,124.28 46.969,0 0,-119.04 c -15.473,-1.7979 -31.141,-3.558 -46.969,-5.25 z m 59.625,6.75 0,117.53 12.656,0 0,-116 c -4.22,-0.52 -8.42,-1.04 -12.66,-1.54 z m 23.5,2.8438 0,114.69 28.906,0 0,-111.03 c -9.5534,-1.2412 -19.195,-2.4552 -28.906,-3.6562 z m 46.969,6.0625 0,108.62 75.906,0 0,-97.812 c -24.654,-3.7518 -49.972,-7.3385 -75.906,-10.812 z m 84.938,12.188 0,96.438 12.656,0 0,-94.438 c -4.2117,-0.66481 -8.4038,-1.343 -12.656,-2 z m 45.188,7.25 0,89.188 19.875,0 0,-85.812 c -6.5762,-1.1355 -13.185,-2.2588 -19.875,-3.375 z m 27.12,4.65 0,84.531 10.844,0 0,-82.625 c -3.6,-0.65 -7.21,-1.27 -10.84,-1.91 z m 23.469,4.1875 0,80.344 47,0 0,-71.406 c -15.29,-3.0357 -30.941,-6.011 -47,-8.9375 z m 59.656,11.469 0,68.875 12.656,0 0,-66.25 c -4.2054,-0.87624 -8.3864,-1.7568 -12.656,-2.625 z m 43.375,9.2188 0,59.656 28.906,0 0,-53.062 c -9.4433,-2.2236 -19.059,-4.4126 -28.906,-6.5938 z" transform="translate(0,352.36)"/></g><g id="g3827" clip-path="url(#clipPath6983)" transform="matrix(0.790079,0,0,0.50972097,-0.04636338,425.95577)"><path id="path3829" d="m 0,787.65 0,218.43 1000,0 0,-82.17 C 838.3,871.24 571.64,825.08 259.12,801.32 170.41,794.57 83.53,790.05 0,787.61 Z" clip-path="none" style="fill:#f6ffd5"/><path id="path3831" d="m 0,796.55 0,209.53 1000,0 0,-78.82 C 838.3,876.73 571.64,832.46 259.12,809.66 170.41,803.19 83.53,798.85 0,796.51 Z" clip-path="none" style="fill:url(#linearGradient3906)"/><path id="path3834" d="m 1.625,444.25 0,154.28 12.656,0 0,-153.91 C 10.063,444.5 5.8264,444.37 1.625,444.25 Z m 23.5,0.71875 0,153.56 28.938,0 0,-152.56 c -9.6829,-0.36496 -19.335,-0.68751 -28.938,-1 z m 41.562,1.5 0,152.06 75.906,0 0,-148.53 c -25.522,-1.3549 -50.856,-2.5313 -75.906,-3.5312 z m 104.81,5.125 0,146.94 19.906,0 0,-145.75 c -6.6554,-0.40888 -13.277,-0.80276 -19.906,-1.1875 z m 30.75,1.875 0,145.06 19.875,0 0,-143.78 c -6.6445,-0.44293 -13.254,-0.8623 -19.875,-1.2812 z m 36.125,2.4062 0,142.66 47,0 0,-139.22 c -8.7188,-0.67501 -17.457,-1.3274 -26.25,-1.9688 -6.9338,-0.50576 -13.839,-0.98903 -20.75,-1.4688 z m 65.062,4.875 0,137.78 12.656,0 0,-136.75 c -4.2006,-0.34755 -8.4372,-0.69144 -12.656,-1.0312 z m 50.594,4.3125 0,133.47 19.875,0 0,-131.66 c -6.5848,-0.61253 -13.24,-1.219 -19.875,-1.8125 z m 48.812,4.5625 0,128.91 28.906,0 0,-126 c -9.5774,-0.99385 -19.209,-1.9527 -28.906,-2.9062 z m 45.188,4.625 0,124.28 46.969,0 0,-119.04 c -15.473,-1.7979 -31.141,-3.558 -46.969,-5.25 z m 59.625,6.75 0,117.53 12.656,0 0,-116 c -4.22,-0.52 -8.42,-1.04 -12.66,-1.54 z m 23.5,2.8438 0,114.69 28.906,0 0,-111.03 c -9.5534,-1.2412 -19.195,-2.4552 -28.906,-3.6562 z m 46.969,6.0625 0,108.62 75.906,0 0,-97.812 c -24.654,-3.7518 -49.972,-7.3385 -75.906,-10.812 z m 84.938,12.188 0,96.438 12.656,0 0,-94.438 c -4.2117,-0.66481 -8.4038,-1.343 -12.656,-2 z m 45.188,7.25 0,89.188 19.875,0 0,-85.812 c -6.5762,-1.1355 -13.185,-2.2588 -19.875,-3.375 z m 27.12,4.65 0,84.531 10.844,0 0,-82.625 c -3.6,-0.65 -7.21,-1.27 -10.84,-1.91 z m 23.469,4.1875 0,80.344 47,0 0,-71.406 c -15.29,-3.0357 -30.941,-6.011 -47,-8.9375 z m 59.656,11.469 0,68.875 12.656,0 0,-66.25 c -4.2054,-0.87624 -8.3864,-1.7568 -12.656,-2.625 z m 43.375,9.2188 0,59.656 28.906,0 0,-53.062 c -9.4433,-2.2236 -19.059,-4.4126 -28.906,-6.5938 z" transform="translate(0,352.36)" style="opacity:.13942003;fill:url(#linearGradient3908)"/></g><g id="g3836" clip-path="url(#clipPath6979)" transform="matrix(0.790079,0,0,0.50972097,-0.04636338,443.95577)"><path id="path3838" d="M 990.5,862.4 C 831.24,862.76 659.02,867.15 481.28,876.04 308.16,884.69 145.78,896.82 0,911.35 l 0,141.01 1000,0 0,-190 c -3.1699,0.004 -6.3197,-0.006 -9.5,0 z" clip-path="none" style="fill:#f6ffd5"/><path id="path3840" d="m 990.5,518.94 c -159.26,0.3432 -331.48,4.5284 -509.22,13 C 308.16,540.19 145.78,551.75 0,565.59 L 0,700 l 1000,0 0,-181.06 c -3.1699,0.004 -6.3197,-0.006 -9.5,0 z" clip-path="none" transform="translate(0,352.36)" style="fill:url(#linearGradient3910)"/><path id="path3842" d="m 979.81,518.97 c -15.555,0.0501 -31.209,0.12655 -47,0.25 l 0,180.78 47,0 0,-181.03 z m -70.469,0.46875 c -4.2168,0.0424 -8.424,0.0774 -12.656,0.125 l 0,180.44 12.656,0 0,-180.56 z m -23.5,0.28125 c -9.61,0.11793 -19.251,0.26135 -28.938,0.40625 l 0,179.88 28.938,0 0,-180.28 z m -41.562,0.59375 c -25.068,0.40409 -50.377,0.88261 -75.906,1.4688 l 0,178.22 75.906,0 0,-179.69 z m -104.81,2.1562 c -6.6216,0.16893 -13.257,0.35002 -19.906,0.53125 l 0,177 19.906,0 0,-177.53 z m -30.75,0.84375 c -6.6077,0.18637 -13.242,0.36395 -19.875,0.5625 l 0,176.12 19.875,0 0,-176.69 z m -36.125,1.0625 c -15.596,0.48876 -31.276,1.0374 -47,1.5938 l 0,174.04 47,0 0,-175.62 z m -65.062,2.2188 c -4.2112,0.1555 -8.4366,0.33963 -12.656,0.5 l 0,172.91 12.656,0 0,-173.41 z m -50.594,2 c -6.6152,0.27279 -13.242,0.55901 -19.875,0.84375 l 0,170.56 19.875,0 0,-171.41 z m -48.812,2.0938 c -8.9396,0.4057 -17.875,0.82253 -26.844,1.25 -0.68985,0.0329 -1.373,0.0608 -2.0625,0.0937 l 0,167.97 28.906,0 0,-169.31 z m -45.188,2.1562 c -15.742,0.77495 -31.414,1.5775 -46.969,2.4062 l 0,164.75 46.969,0 0,-167.16 z m -59.625,3.0625 c -4.2204,0.22954 -8.4504,0.45408 -12.656,0.6875 l 0,163.41 12.656,0 0,-164.09 z m -23.5,1.3125 c -9.671,0.54599 -19.315,1.09 -28.906,1.6562 l 0,161.12 28.906,0 0,-162.78 z m -46.969,2.75 c -25.599,1.553 -50.918,3.1832 -75.906,4.875 l 0,155.16 75.906,0 0,-160.03 z m -84.938,5.5 c -4.22,0.28935 -8.4547,0.55057 -12.656,0.84375 l 0,153.69 12.656,0 0,-154.53 z m -45.188,3.1875 c -6.6579,0.48571 -13.266,0.97355 -19.875,1.4688 l 0,149.88 19.875,0 0,-151.34 z m -27.125,2 c -3.6237,0.27417 -7.2353,0.56676 -10.844,0.84375 l 0,148.5 10.844,0 0,-149.34 z m -23.469,1.8125 c -15.817,1.2346 -31.489,2.4939 -47,3.7812 l 0,143.75 47,0 0,-147.53 z m -59.656,4.8438 c -4.2275,0.35667 -8.4526,0.73325 -12.656,1.0938 l 0,141.59 12.656,0 0,-142.69 z m -43.375,3.75 c -9.7052,0.86577 -19.337,1.7705 -28.906,2.6562 l 0,136.29 28.9,0 0,-138.94 z" transform="translate(0,352.36)" style="opacity:.13942003;fill:url(#linearGradient3912)"/></g><g id="g3844" clip-path="url(#clipPath6983)" transform="matrix(0.790079,0,0,0.50972097,-0.04636338,515.95577)"><path style="fill:#f6ffd5" id="path3846" d="m 0,787.65 0,218.43 1000,0 0,-82.17 C 838.3,871.24 571.64,825.08 259.12,801.32 170.41,794.57 83.53,790.05 0,787.61 Z" clip-path="none"/><path style="fill:url(#linearGradient3914)" id="path3848" d="m 0,796.55 0,209.53 1000,0 0,-78.82 C 838.3,876.73 571.64,832.46 259.12,809.66 170.41,803.19 83.53,798.85 0,796.51 Z" clip-path="none"/><path style="opacity:.13942003;fill:url(#linearGradient3916)" id="path3850" d="m 1.625,444.25 0,154.28 12.656,0 0,-153.91 C 10.063,444.5 5.8264,444.37 1.625,444.25 Z m 23.5,0.71875 0,153.56 28.938,0 0,-152.56 c -9.6829,-0.36496 -19.335,-0.68751 -28.938,-1 z m 41.562,1.5 0,152.06 75.906,0 0,-148.53 c -25.522,-1.3549 -50.856,-2.5313 -75.906,-3.5312 z m 104.81,5.125 0,146.94 19.906,0 0,-145.75 c -6.6554,-0.40888 -13.277,-0.80276 -19.906,-1.1875 z m 30.75,1.875 0,145.06 19.875,0 0,-143.78 c -6.6445,-0.44293 -13.254,-0.8623 -19.875,-1.2812 z m 36.125,2.4062 0,142.66 47,0 0,-139.22 c -8.7188,-0.67501 -17.457,-1.3274 -26.25,-1.9688 -6.9338,-0.50576 -13.839,-0.98903 -20.75,-1.4688 z m 65.062,4.875 0,137.78 12.656,0 0,-136.75 c -4.2006,-0.34755 -8.4372,-0.69144 -12.656,-1.0312 z m 50.594,4.3125 0,133.47 19.875,0 0,-131.66 c -6.5848,-0.61253 -13.24,-1.219 -19.875,-1.8125 z m 48.812,4.5625 0,128.91 28.906,0 0,-126 c -9.5774,-0.99385 -19.209,-1.9527 -28.906,-2.9062 z m 45.188,4.625 0,124.28 46.969,0 0,-119.04 c -15.473,-1.7979 -31.141,-3.558 -46.969,-5.25 z m 59.625,6.75 0,117.53 12.656,0 0,-116 c -4.22,-0.52 -8.42,-1.04 -12.66,-1.54 z m 23.5,2.8438 0,114.69 28.906,0 0,-111.03 c -9.5534,-1.2412 -19.195,-2.4552 -28.906,-3.6562 z m 46.969,6.0625 0,108.62 75.906,0 0,-97.812 c -24.654,-3.7518 -49.972,-7.3385 -75.906,-10.812 z m 84.938,12.188 0,96.438 12.656,0 0,-94.438 c -4.2117,-0.66481 -8.4038,-1.343 -12.656,-2 z m 45.188,7.25 0,89.188 19.875,0 0,-85.812 c -6.5762,-1.1355 -13.185,-2.2588 -19.875,-3.375 z m 27.12,4.65 0,84.531 10.844,0 0,-82.625 c -3.6,-0.65 -7.21,-1.27 -10.84,-1.91 z m 23.469,4.1875 0,80.344 47,0 0,-71.406 c -15.29,-3.0357 -30.941,-6.011 -47,-8.9375 z m 59.656,11.469 0,68.875 12.656,0 0,-66.25 c -4.2054,-0.87624 -8.3864,-1.7568 -12.656,-2.625 z m 43.375,9.2188 0,59.656 28.906,0 0,-53.062 c -9.4433,-2.2236 -19.059,-4.4126 -28.906,-6.5938 z" transform="translate(0,352.36)"/></g><g id="g3852" clip-path="none" mask="none" transform="matrix(0.790079,0,0,0.50972097,-0.04636338,515.95577)"><path style="fill:#f6ffd5" id="path3854" d="M 990.5,862.4 C 831.24,862.76 659.02,867.15 481.28,876.04 308.16,884.69 145.78,896.82 0,911.35 l 0,141.01 1000,0 0,-190 c -3.1699,0.004 -6.3197,-0.006 -9.5,0 z" clip-path="none"/><path style="fill:url(#linearGradient3918)" id="path3856" d="m 990.5,518.94 c -159.26,0.3432 -331.48,4.5284 -509.22,13 C 308.16,540.19 145.78,551.75 0,565.59 L 0,700 l 1000,0 0,-181.06 c -3.1699,0.004 -6.3197,-0.006 -9.5,0 z" clip-path="none" transform="translate(0,352.36)"/><path style="opacity:.13942003;fill:url(#linearGradient3920)" id="path3858" d="m 979.81,518.97 c -15.555,0.0501 -31.209,0.12655 -47,0.25 l 0,180.78 47,0 0,-181.03 z m -70.469,0.46875 c -4.2168,0.0424 -8.424,0.0774 -12.656,0.125 l 0,180.44 12.656,0 0,-180.56 z m -23.5,0.28125 c -9.61,0.11793 -19.251,0.26135 -28.938,0.40625 l 0,179.88 28.938,0 0,-180.28 z m -41.562,0.59375 c -25.068,0.40409 -50.377,0.88261 -75.906,1.4688 l 0,178.22 75.906,0 0,-179.69 z m -104.81,2.1562 c -6.6216,0.16893 -13.257,0.35002 -19.906,0.53125 l 0,177 19.906,0 0,-177.53 z m -30.75,0.84375 c -6.6077,0.18637 -13.242,0.36395 -19.875,0.5625 l 0,176.12 19.875,0 0,-176.69 z m -36.125,1.0625 c -15.596,0.48876 -31.276,1.0374 -47,1.5938 l 0,174.04 47,0 0,-175.62 z m -65.062,2.2188 c -4.2112,0.1555 -8.4366,0.33963 -12.656,0.5 l 0,172.91 12.656,0 0,-173.41 z m -50.594,2 c -6.6152,0.27279 -13.242,0.55901 -19.875,0.84375 l 0,170.56 19.875,0 0,-171.41 z m -48.812,2.0938 c -8.9396,0.4057 -17.875,0.82253 -26.844,1.25 -0.68985,0.0329 -1.373,0.0608 -2.0625,0.0937 l 0,167.97 28.906,0 0,-169.31 z m -45.188,2.1562 c -15.742,0.77495 -31.414,1.5775 -46.969,2.4062 l 0,164.75 46.969,0 0,-167.16 z m -59.625,3.0625 c -4.2204,0.22954 -8.4504,0.45408 -12.656,0.6875 l 0,163.41 12.656,0 0,-164.09 z m -23.5,1.3125 c -9.671,0.54599 -19.315,1.09 -28.906,1.6562 l 0,161.12 28.906,0 0,-162.78 z m -46.969,2.75 c -25.599,1.553 -50.918,3.1832 -75.906,4.875 l 0,155.16 75.906,0 0,-160.03 z m -84.938,5.5 c -4.22,0.28935 -8.4547,0.55057 -12.656,0.84375 l 0,153.69 12.656,0 0,-154.53 z m -45.188,3.1875 c -6.6579,0.48571 -13.266,0.97355 -19.875,1.4688 l 0,149.88 19.875,0 0,-151.34 z m -27.125,2 c -3.6237,0.27417 -7.2353,0.56676 -10.844,0.84375 l 0,148.5 10.844,0 0,-149.34 z m -23.469,1.8125 c -15.817,1.2346 -31.489,2.4939 -47,3.7812 l 0,143.75 47,0 0,-147.53 z m -59.656,4.8438 c -4.2275,0.35667 -8.4526,0.73325 -12.656,1.0938 l 0,141.59 12.656,0 0,-142.69 z m -43.375,3.75 c -9.7052,0.86577 -19.337,1.7705 -28.906,2.6562 l 0,136.29 28.9,0 0,-138.94 z" transform="translate(0,352.36)"/></g></g><g id="g3860" transform="matrix(-1,0,0,1,1577.9863,0)"><g id="g3862" clip-path="url(#clipPath6983)" transform="matrix(-0.790079,0,0,0.50972097,790.03097,425.95577)"><path id="path3864" d="m 0,787.65 0,218.43 1000,0 0,-82.17 C 838.3,871.24 571.64,825.08 259.12,801.32 170.41,794.57 83.53,790.05 0,787.61 Z" clip-path="none" style="fill:#f6ffd5"/><path id="path3866" d="m 0,796.55 0,209.53 1000,0 0,-78.82 C 838.3,876.73 571.64,832.46 259.12,809.66 170.41,803.19 83.53,798.85 0,796.51 Z" clip-path="none" style="fill:url(#linearGradient3922)"/><path id="path3868" d="m 1.625,444.25 0,154.28 12.656,0 0,-153.91 C 10.063,444.5 5.8264,444.37 1.625,444.25 Z m 23.5,0.71875 0,153.56 28.938,0 0,-152.56 c -9.6829,-0.36496 -19.335,-0.68751 -28.938,-1 z m 41.562,1.5 0,152.06 75.906,0 0,-148.53 c -25.522,-1.3549 -50.856,-2.5313 -75.906,-3.5312 z m 104.81,5.125 0,146.94 19.906,0 0,-145.75 c -6.6554,-0.40888 -13.277,-0.80276 -19.906,-1.1875 z m 30.75,1.875 0,145.06 19.875,0 0,-143.78 c -6.6445,-0.44293 -13.254,-0.8623 -19.875,-1.2812 z m 36.125,2.4062 0,142.66 47,0 0,-139.22 c -8.7188,-0.67501 -17.457,-1.3274 -26.25,-1.9688 -6.9338,-0.50576 -13.839,-0.98903 -20.75,-1.4688 z m 65.062,4.875 0,137.78 12.656,0 0,-136.75 c -4.2006,-0.34755 -8.4372,-0.69144 -12.656,-1.0312 z m 50.594,4.3125 0,133.47 19.875,0 0,-131.66 c -6.5848,-0.61253 -13.24,-1.219 -19.875,-1.8125 z m 48.812,4.5625 0,128.91 28.906,0 0,-126 c -9.5774,-0.99385 -19.209,-1.9527 -28.906,-2.9062 z m 45.188,4.625 0,124.28 46.969,0 0,-119.04 c -15.473,-1.7979 -31.141,-3.558 -46.969,-5.25 z m 59.625,6.75 0,117.53 12.656,0 0,-116 c -4.22,-0.52 -8.42,-1.04 -12.66,-1.54 z m 23.5,2.8438 0,114.69 28.906,0 0,-111.03 c -9.5534,-1.2412 -19.195,-2.4552 -28.906,-3.6562 z m 46.969,6.0625 0,108.62 75.906,0 0,-97.812 c -24.654,-3.7518 -49.972,-7.3385 -75.906,-10.812 z m 84.938,12.188 0,96.438 12.656,0 0,-94.438 c -4.2117,-0.66481 -8.4038,-1.343 -12.656,-2 z m 45.188,7.25 0,89.188 19.875,0 0,-85.812 c -6.5762,-1.1355 -13.185,-2.2588 -19.875,-3.375 z m 27.12,4.65 0,84.531 10.844,0 0,-82.625 c -3.6,-0.65 -7.21,-1.27 -10.84,-1.91 z m 23.469,4.1875 0,80.344 47,0 0,-71.406 c -15.29,-3.0357 -30.941,-6.011 -47,-8.9375 z m 59.656,11.469 0,68.875 12.656,0 0,-66.25 c -4.2054,-0.87624 -8.3864,-1.7568 -12.656,-2.625 z m 43.375,9.2188 0,59.656 28.906,0 0,-53.062 c -9.4433,-2.2236 -19.059,-4.4126 -28.906,-6.5938 z" transform="translate(0,352.36)" style="opacity:.13942003;fill:url(#linearGradient3924)"/></g><g id="g3870" clip-path="url(#clipPath6983)" transform="matrix(0.790079,0,0,0.50972097,-0.04636338,425.95577)"><path style="fill:#f6ffd5" id="path3872" d="m 0,787.65 0,218.43 1000,0 0,-82.17 C 838.3,871.24 571.64,825.08 259.12,801.32 170.41,794.57 83.53,790.05 0,787.61 Z" clip-path="none"/><path style="fill:url(#linearGradient3926)" id="path3874" d="m 0,796.55 0,209.53 1000,0 0,-78.82 C 838.3,876.73 571.64,832.46 259.12,809.66 170.41,803.19 83.53,798.85 0,796.51 Z" clip-path="none"/><path style="opacity:.13942003;fill:url(#linearGradient3928)" id="path3876" d="m 1.625,444.25 0,154.28 12.656,0 0,-153.91 C 10.063,444.5 5.8264,444.37 1.625,444.25 Z m 23.5,0.71875 0,153.56 28.938,0 0,-152.56 c -9.6829,-0.36496 -19.335,-0.68751 -28.938,-1 z m 41.562,1.5 0,152.06 75.906,0 0,-148.53 c -25.522,-1.3549 -50.856,-2.5313 -75.906,-3.5312 z m 104.81,5.125 0,146.94 19.906,0 0,-145.75 c -6.6554,-0.40888 -13.277,-0.80276 -19.906,-1.1875 z m 30.75,1.875 0,145.06 19.875,0 0,-143.78 c -6.6445,-0.44293 -13.254,-0.8623 -19.875,-1.2812 z m 36.125,2.4062 0,142.66 47,0 0,-139.22 c -8.7188,-0.67501 -17.457,-1.3274 -26.25,-1.9688 -6.9338,-0.50576 -13.839,-0.98903 -20.75,-1.4688 z m 65.062,4.875 0,137.78 12.656,0 0,-136.75 c -4.2006,-0.34755 -8.4372,-0.69144 -12.656,-1.0312 z m 50.594,4.3125 0,133.47 19.875,0 0,-131.66 c -6.5848,-0.61253 -13.24,-1.219 -19.875,-1.8125 z m 48.812,4.5625 0,128.91 28.906,0 0,-126 c -9.5774,-0.99385 -19.209,-1.9527 -28.906,-2.9062 z m 45.188,4.625 0,124.28 46.969,0 0,-119.04 c -15.473,-1.7979 -31.141,-3.558 -46.969,-5.25 z m 59.625,6.75 0,117.53 12.656,0 0,-116 c -4.22,-0.52 -8.42,-1.04 -12.66,-1.54 z m 23.5,2.8438 0,114.69 28.906,0 0,-111.03 c -9.5534,-1.2412 -19.195,-2.4552 -28.906,-3.6562 z m 46.969,6.0625 0,108.62 75.906,0 0,-97.812 c -24.654,-3.7518 -49.972,-7.3385 -75.906,-10.812 z m 84.938,12.188 0,96.438 12.656,0 0,-94.438 c -4.2117,-0.66481 -8.4038,-1.343 -12.656,-2 z m 45.188,7.25 0,89.188 19.875,0 0,-85.812 c -6.5762,-1.1355 -13.185,-2.2588 -19.875,-3.375 z m 27.12,4.65 0,84.531 10.844,0 0,-82.625 c -3.6,-0.65 -7.21,-1.27 -10.84,-1.91 z m 23.469,4.1875 0,80.344 47,0 0,-71.406 c -15.29,-3.0357 -30.941,-6.011 -47,-8.9375 z m 59.656,11.469 0,68.875 12.656,0 0,-66.25 c -4.2054,-0.87624 -8.3864,-1.7568 -12.656,-2.625 z m 43.375,9.2188 0,59.656 28.906,0 0,-53.062 c -9.4433,-2.2236 -19.059,-4.4126 -28.906,-6.5938 z" transform="translate(0,352.36)"/></g><g id="g3878" clip-path="url(#clipPath6979)" transform="matrix(0.790079,0,0,0.50972097,-0.04636338,443.95577)"><path style="fill:#f6ffd5" id="path3880" d="M 990.5,862.4 C 831.24,862.76 659.02,867.15 481.28,876.04 308.16,884.69 145.78,896.82 0,911.35 l 0,141.01 1000,0 0,-190 c -3.1699,0.004 -6.3197,-0.006 -9.5,0 z" clip-path="none"/><path style="fill:url(#linearGradient3930)" id="path3882" d="m 990.5,518.94 c -159.26,0.3432 -331.48,4.5284 -509.22,13 C 308.16,540.19 145.78,551.75 0,565.59 L 0,700 l 1000,0 0,-181.06 c -3.1699,0.004 -6.3197,-0.006 -9.5,0 z" clip-path="none" transform="translate(0,352.36)"/><path style="opacity:.13942003;fill:url(#linearGradient3932)" id="path3884" d="m 979.81,518.97 c -15.555,0.0501 -31.209,0.12655 -47,0.25 l 0,180.78 47,0 0,-181.03 z m -70.469,0.46875 c -4.2168,0.0424 -8.424,0.0774 -12.656,0.125 l 0,180.44 12.656,0 0,-180.56 z m -23.5,0.28125 c -9.61,0.11793 -19.251,0.26135 -28.938,0.40625 l 0,179.88 28.938,0 0,-180.28 z m -41.562,0.59375 c -25.068,0.40409 -50.377,0.88261 -75.906,1.4688 l 0,178.22 75.906,0 0,-179.69 z m -104.81,2.1562 c -6.6216,0.16893 -13.257,0.35002 -19.906,0.53125 l 0,177 19.906,0 0,-177.53 z m -30.75,0.84375 c -6.6077,0.18637 -13.242,0.36395 -19.875,0.5625 l 0,176.12 19.875,0 0,-176.69 z m -36.125,1.0625 c -15.596,0.48876 -31.276,1.0374 -47,1.5938 l 0,174.04 47,0 0,-175.62 z m -65.062,2.2188 c -4.2112,0.1555 -8.4366,0.33963 -12.656,0.5 l 0,172.91 12.656,0 0,-173.41 z m -50.594,2 c -6.6152,0.27279 -13.242,0.55901 -19.875,0.84375 l 0,170.56 19.875,0 0,-171.41 z m -48.812,2.0938 c -8.9396,0.4057 -17.875,0.82253 -26.844,1.25 -0.68985,0.0329 -1.373,0.0608 -2.0625,0.0937 l 0,167.97 28.906,0 0,-169.31 z m -45.188,2.1562 c -15.742,0.77495 -31.414,1.5775 -46.969,2.4062 l 0,164.75 46.969,0 0,-167.16 z m -59.625,3.0625 c -4.2204,0.22954 -8.4504,0.45408 -12.656,0.6875 l 0,163.41 12.656,0 0,-164.09 z m -23.5,1.3125 c -9.671,0.54599 -19.315,1.09 -28.906,1.6562 l 0,161.12 28.906,0 0,-162.78 z m -46.969,2.75 c -25.599,1.553 -50.918,3.1832 -75.906,4.875 l 0,155.16 75.906,0 0,-160.03 z m -84.938,5.5 c -4.22,0.28935 -8.4547,0.55057 -12.656,0.84375 l 0,153.69 12.656,0 0,-154.53 z m -45.188,3.1875 c -6.6579,0.48571 -13.266,0.97355 -19.875,1.4688 l 0,149.88 19.875,0 0,-151.34 z m -27.125,2 c -3.6237,0.27417 -7.2353,0.56676 -10.844,0.84375 l 0,148.5 10.844,0 0,-149.34 z m -23.469,1.8125 c -15.817,1.2346 -31.489,2.4939 -47,3.7812 l 0,143.75 47,0 0,-147.53 z m -59.656,4.8438 c -4.2275,0.35667 -8.4526,0.73325 -12.656,1.0938 l 0,141.59 12.656,0 0,-142.69 z m -43.375,3.75 c -9.7052,0.86577 -19.337,1.7705 -28.906,2.6562 l 0,136.29 28.9,0 0,-138.94 z" transform="translate(0,352.36)"/></g><g id="g3886" clip-path="url(#clipPath6983)" transform="matrix(0.790079,0,0,0.50972097,-0.04636338,515.95577)"><path id="path3888" d="m 0,787.65 0,218.43 1000,0 0,-82.17 C 838.3,871.24 571.64,825.08 259.12,801.32 170.41,794.57 83.53,790.05 0,787.61 Z" clip-path="none" style="fill:#f6ffd5"/><path id="path3890" d="m 0,796.55 0,209.53 1000,0 0,-78.82 C 838.3,876.73 571.64,832.46 259.12,809.66 170.41,803.19 83.53,798.85 0,796.51 Z" clip-path="none" style="fill:url(#linearGradient3934)"/><path id="path3892" d="m 1.625,444.25 0,154.28 12.656,0 0,-153.91 C 10.063,444.5 5.8264,444.37 1.625,444.25 Z m 23.5,0.71875 0,153.56 28.938,0 0,-152.56 c -9.6829,-0.36496 -19.335,-0.68751 -28.938,-1 z m 41.562,1.5 0,152.06 75.906,0 0,-148.53 c -25.522,-1.3549 -50.856,-2.5313 -75.906,-3.5312 z m 104.81,5.125 0,146.94 19.906,0 0,-145.75 c -6.6554,-0.40888 -13.277,-0.80276 -19.906,-1.1875 z m 30.75,1.875 0,145.06 19.875,0 0,-143.78 c -6.6445,-0.44293 -13.254,-0.8623 -19.875,-1.2812 z m 36.125,2.4062 0,142.66 47,0 0,-139.22 c -8.7188,-0.67501 -17.457,-1.3274 -26.25,-1.9688 -6.9338,-0.50576 -13.839,-0.98903 -20.75,-1.4688 z m 65.062,4.875 0,137.78 12.656,0 0,-136.75 c -4.2006,-0.34755 -8.4372,-0.69144 -12.656,-1.0312 z m 50.594,4.3125 0,133.47 19.875,0 0,-131.66 c -6.5848,-0.61253 -13.24,-1.219 -19.875,-1.8125 z m 48.812,4.5625 0,128.91 28.906,0 0,-126 c -9.5774,-0.99385 -19.209,-1.9527 -28.906,-2.9062 z m 45.188,4.625 0,124.28 46.969,0 0,-119.04 c -15.473,-1.7979 -31.141,-3.558 -46.969,-5.25 z m 59.625,6.75 0,117.53 12.656,0 0,-116 c -4.22,-0.52 -8.42,-1.04 -12.66,-1.54 z m 23.5,2.8438 0,114.69 28.906,0 0,-111.03 c -9.5534,-1.2412 -19.195,-2.4552 -28.906,-3.6562 z m 46.969,6.0625 0,108.62 75.906,0 0,-97.812 c -24.654,-3.7518 -49.972,-7.3385 -75.906,-10.812 z m 84.938,12.188 0,96.438 12.656,0 0,-94.438 c -4.2117,-0.66481 -8.4038,-1.343 -12.656,-2 z m 45.188,7.25 0,89.188 19.875,0 0,-85.812 c -6.5762,-1.1355 -13.185,-2.2588 -19.875,-3.375 z m 27.12,4.65 0,84.531 10.844,0 0,-82.625 c -3.6,-0.65 -7.21,-1.27 -10.84,-1.91 z m 23.469,4.1875 0,80.344 47,0 0,-71.406 c -15.29,-3.0357 -30.941,-6.011 -47,-8.9375 z m 59.656,11.469 0,68.875 12.656,0 0,-66.25 c -4.2054,-0.87624 -8.3864,-1.7568 -12.656,-2.625 z m 43.375,9.2188 0,59.656 28.906,0 0,-53.062 c -9.4433,-2.2236 -19.059,-4.4126 -28.906,-6.5938 z" transform="translate(0,352.36)" style="opacity:.13942003;fill:url(#linearGradient3936)"/></g><g id="g3894" clip-path="none" mask="none" transform="matrix(0.790079,0,0,0.50972097,-0.04636338,515.95577)"><path id="path3896" d="M 990.5,862.4 C 831.24,862.76 659.02,867.15 481.28,876.04 308.16,884.69 145.78,896.82 0,911.35 l 0,141.01 1000,0 0,-190 c -3.1699,0.004 -6.3197,-0.006 -9.5,0 z" clip-path="none" style="fill:#f6ffd5"/><path id="path3898" d="m 990.5,518.94 c -159.26,0.3432 -331.48,4.5284 -509.22,13 C 308.16,540.19 145.78,551.75 0,565.59 L 0,700 l 1000,0 0,-181.06 c -3.1699,0.004 -6.3197,-0.006 -9.5,0 z" clip-path="none" transform="translate(0,352.36)" style="fill:url(#linearGradient3938)"/><path id="path3900" d="m 979.81,518.97 c -15.555,0.0501 -31.209,0.12655 -47,0.25 l 0,180.78 47,0 0,-181.03 z m -70.469,0.46875 c -4.2168,0.0424 -8.424,0.0774 -12.656,0.125 l 0,180.44 12.656,0 0,-180.56 z m -23.5,0.28125 c -9.61,0.11793 -19.251,0.26135 -28.938,0.40625 l 0,179.88 28.938,0 0,-180.28 z m -41.562,0.59375 c -25.068,0.40409 -50.377,0.88261 -75.906,1.4688 l 0,178.22 75.906,0 0,-179.69 z m -104.81,2.1562 c -6.6216,0.16893 -13.257,0.35002 -19.906,0.53125 l 0,177 19.906,0 0,-177.53 z m -30.75,0.84375 c -6.6077,0.18637 -13.242,0.36395 -19.875,0.5625 l 0,176.12 19.875,0 0,-176.69 z m -36.125,1.0625 c -15.596,0.48876 -31.276,1.0374 -47,1.5938 l 0,174.04 47,0 0,-175.62 z m -65.062,2.2188 c -4.2112,0.1555 -8.4366,0.33963 -12.656,0.5 l 0,172.91 12.656,0 0,-173.41 z m -50.594,2 c -6.6152,0.27279 -13.242,0.55901 -19.875,0.84375 l 0,170.56 19.875,0 0,-171.41 z m -48.812,2.0938 c -8.9396,0.4057 -17.875,0.82253 -26.844,1.25 -0.68985,0.0329 -1.373,0.0608 -2.0625,0.0937 l 0,167.97 28.906,0 0,-169.31 z m -45.188,2.1562 c -15.742,0.77495 -31.414,1.5775 -46.969,2.4062 l 0,164.75 46.969,0 0,-167.16 z m -59.625,3.0625 c -4.2204,0.22954 -8.4504,0.45408 -12.656,0.6875 l 0,163.41 12.656,0 0,-164.09 z m -23.5,1.3125 c -9.671,0.54599 -19.315,1.09 -28.906,1.6562 l 0,161.12 28.906,0 0,-162.78 z m -46.969,2.75 c -25.599,1.553 -50.918,3.1832 -75.906,4.875 l 0,155.16 75.906,0 0,-160.03 z m -84.938,5.5 c -4.22,0.28935 -8.4547,0.55057 -12.656,0.84375 l 0,153.69 12.656,0 0,-154.53 z m -45.188,3.1875 c -6.6579,0.48571 -13.266,0.97355 -19.875,1.4688 l 0,149.88 19.875,0 0,-151.34 z m -27.125,2 c -3.6237,0.27417 -7.2353,0.56676 -10.844,0.84375 l 0,148.5 10.844,0 0,-149.34 z m -23.469,1.8125 c -15.817,1.2346 -31.489,2.4939 -47,3.7812 l 0,143.75 47,0 0,-147.53 z m -59.656,4.8438 c -4.2275,0.35667 -8.4526,0.73325 -12.656,1.0938 l 0,141.59 12.656,0 0,-142.69 z m -43.375,3.75 c -9.7052,0.86577 -19.337,1.7705 -28.906,2.6562 l 0,136.29 28.9,0 0,-138.94 z" transform="translate(0,352.36)" style="opacity:.13942003;fill:url(#linearGradient3940)"/></g></g></g></g></g><metadata id="metadata171"/></svg>