<?xml version="1.0" encoding="UTF-8" standalone="no"?>
<!-- Created with Inkscape (http://www.inkscape.org/) -->

<svg
   xmlns:dc="http://purl.org/dc/elements/1.1/"
   xmlns:cc="http://creativecommons.org/ns#"
   xmlns:rdf="http://www.w3.org/1999/02/22-rdf-syntax-ns#"
   xmlns:svg="http://www.w3.org/2000/svg"
   xmlns="http://www.w3.org/2000/svg"
   xmlns:xlink="http://www.w3.org/1999/xlink"
   xmlns:sodipodi="http://sodipodi.sourceforge.net/DTD/sodipodi-0.dtd"
   xmlns:inkscape="http://www.inkscape.org/namespaces/inkscape"
   width="1986.7917"
   height="578.02759"
   id="svg2"
   version="1.1"
   inkscape:version="0.91 r"
   sodipodi:docname="sky-backdrop.svg"
   inkscape:export-filename="sky-backdrop.png"
   inkscape:export-xdpi="89.993637"
   inkscape:export-ydpi="89.993637">
  <defs
     id="defs4">
    <linearGradient
       inkscape:collect="always"
       id="linearGradient3768">
      <stop
         style="stop-color:#00ffff;stop-opacity:1"
         offset="0"
         id="stop3770" />
      <stop
         style="stop-color:#ffffff;stop-opacity:1"
         offset="1"
         id="stop3772" />
    </linearGradient>
    <linearGradient
       inkscape:collect="always"
       id="linearGradient3760">
      <stop
         style="stop-color:#ffffff;stop-opacity:1;"
         offset="0"
         id="stop3762" />
      <stop
         style="stop-color:#ffffff;stop-opacity:0;"
         offset="1"
         id="stop3764" />
    </linearGradient>
    <linearGradient
       inkscape:collect="always"
       xlink:href="#linearGradient3760"
       id="linearGradient3766"
       x1="460.97562"
       y1="967.16803"
       x2="461.93756"
       y2="1040.4818"
       gradientUnits="userSpaceOnUse"
       gradientTransform="matrix(1,0,0,0.57211317,0,446.76358)" />
    <radialGradient
       inkscape:collect="always"
       xlink:href="#linearGradient3768"
       id="radialGradient3776"
       cx="450.48837"
       cy="1091.8177"
       fx="450.48837"
       fy="1091.8177"
       r="509.96735"
       gradientTransform="matrix(-1.6031742,-0.02520128,0.02910896,-1.8516032,1246.5626,2822.7934)"
       gradientUnits="userSpaceOnUse" />
    <radialGradient
       inkscape:collect="always"
       xlink:href="#linearGradient3768"
       id="radialGradient3347"
       gradientUnits="userSpaceOnUse"
       gradientTransform="matrix(-1.6031742,-0.02520128,0.02910896,-1.8516032,2213.4196,2822.6977)"
       cx="450.48837"
       cy="1091.8177"
       fx="450.48837"
       fy="1091.8177"
       r="509.96735" />
    <linearGradient
       inkscape:collect="always"
       xlink:href="#linearGradient3760"
       id="linearGradient3349"
       gradientUnits="userSpaceOnUse"
       gradientTransform="matrix(1,0,0,0.57211317,933.18955,440.88123)"
       x1="460.97562"
       y1="967.16803"
       x2="461.93756"
       y2="1040.4818" />
    <radialGradient
       inkscape:collect="always"
       xlink:href="#linearGradient3768"
       id="radialGradient3361"
       gradientUnits="userSpaceOnUse"
       gradientTransform="matrix(-1.6031742,-0.02520128,0.02910896,-1.8516032,2213.4196,2822.6977)"
       cx="450.48837"
       cy="1091.8177"
       fx="450.48837"
       fy="1091.8177"
       r="509.96735" />
    <radialGradient
       inkscape:collect="always"
       xlink:href="#linearGradient3768"
       id="radialGradient3363"
       gradientUnits="userSpaceOnUse"
       gradientTransform="matrix(-1.6031742,-0.02520128,0.02910896,-1.8516032,1246.5626,2822.7934)"
       cx="450.48837"
       cy="1091.8177"
       fx="450.48837"
       fy="1091.8177"
       r="509.96735" />
    <radialGradient
       inkscape:collect="always"
       xlink:href="#linearGradient3768"
       id="radialGradient3427"
       gradientUnits="userSpaceOnUse"
       gradientTransform="matrix(-1.6031742,-0.02520128,0.02910896,-1.8516032,2213.4196,2822.6977)"
       cx="450.48837"
       cy="1091.8177"
       fx="450.48837"
       fy="1091.8177"
       r="509.96735" />
    <radialGradient
       inkscape:collect="always"
       xlink:href="#linearGradient3768"
       id="radialGradient3429"
       gradientUnits="userSpaceOnUse"
       gradientTransform="matrix(-1.6031742,-0.02520128,0.02910896,-1.8516032,1246.5626,2822.7934)"
       cx="450.48837"
       cy="1091.8177"
       fx="450.48837"
       fy="1091.8177"
       r="509.96735" />
  </defs>
  <sodipodi:namedview
     id="base"
     pagecolor="#ffffff"
     bordercolor="#666666"
     borderopacity="1.0"
     inkscape:pageopacity="0.0"
     inkscape:pageshadow="2"
     inkscape:zoom="0.27046834"
     inkscape:cx="959.43889"
     inkscape:cy="-357.56689"
     inkscape:document-units="px"
     inkscape:current-layer="layer1"
     showgrid="false"
     borderlayer="true"
     inkscape:showpageshadow="false"
     inkscape:window-width="1160"
     inkscape:window-height="850"
     inkscape:window-x="2597"
     inkscape:window-y="221"
     inkscape:window-maximized="0"
     fit-margin-top="0"
     fit-margin-left="0"
     fit-margin-right="0"
     fit-margin-bottom="0" />
  <metadata
     id="metadata7">
    <rdf:RDF>
      <cc:Work
         rdf:about="">
        <dc:format>image/svg+xml</dc:format>
        <dc:type
           rdf:resource="http://purl.org/dc/dcmitype/StillImage" />
        <dc:title></dc:title>
      </cc:Work>
    </rdf:RDF>
  </metadata>
  <g
     inkscape:label="Layer 1"
     inkscape:groupmode="layer"
     id="layer1"
     transform="translate(5.5964434,-672.14361)">
    <g
       id="g3431">
      <g
         transform="translate(0,188)"
         id="g3421">
        <rect
           y="850.14362"
           x="961.26056"
           height="211.93182"
           width="1019.9347"
           id="rect3423"
           style="fill:url(#radialGradient3427);fill-opacity:1;fill-rule:nonzero;stroke:#000000;stroke-width:0;stroke-linecap:round;stroke-linejoin:round;stroke-miterlimit:4;stroke-dasharray:none;stroke-opacity:1" />
        <rect
           style="fill:url(#radialGradient3429);fill-opacity:1;fill-rule:nonzero;stroke:#000000;stroke-width:0;stroke-linecap:round;stroke-linejoin:round;stroke-miterlimit:4;stroke-dasharray:none;stroke-opacity:1"
           id="rect3425"
           width="1019.9347"
           height="211.93182"
           x="-5.5964384"
           y="850.23938" />
      </g>
      <g
         transform="translate(0,-178)"
         id="g3355">
        <rect
           style="fill:url(#radialGradient3361);fill-opacity:1;fill-rule:nonzero;stroke:#000000;stroke-width:0;stroke-linecap:round;stroke-linejoin:round;stroke-miterlimit:4;stroke-dasharray:none;stroke-opacity:1"
           id="rect3357"
           width="1019.9347"
           height="211.93182"
           x="961.26056"
           y="850.14362" />
        <rect
           y="850.23938"
           x="-5.5964384"
           height="211.93182"
           width="1019.9347"
           id="rect3359"
           style="fill:url(#radialGradient3363);fill-opacity:1;fill-rule:nonzero;stroke:#000000;stroke-width:0;stroke-linecap:round;stroke-linejoin:round;stroke-miterlimit:4;stroke-dasharray:none;stroke-opacity:1" />
      </g>
      <g
         id="g3351">
        <rect
           y="850.14362"
           x="961.26056"
           height="211.93182"
           width="1019.9347"
           id="rect3343"
           style="fill:url(#radialGradient3347);fill-opacity:1;fill-rule:nonzero;stroke:#000000;stroke-width:0;stroke-linecap:round;stroke-linejoin:round;stroke-miterlimit:4;stroke-dasharray:none;stroke-opacity:1" />
        <rect
           style="fill:url(#radialGradient3776);fill-opacity:1;fill-rule:nonzero;stroke:#000000;stroke-width:0;stroke-linecap:round;stroke-linejoin:round;stroke-miterlimit:4;stroke-dasharray:none;stroke-opacity:1"
           id="rect3758"
           width="1019.9347"
           height="211.93182"
           x="-5.5964384"
           y="850.23938" />
      </g>
      <path
         sodipodi:nodetypes="cccccccccccccccsccc"
         inkscape:connector-curvature="0"
         id="path2982"
         d="m 1.4041135,1026.9408 c 5.790292,-12.0863 23.7852295,-24.6548 51.4380625,-17.2099 9.655237,-43.88778 64.030404,-61.1323 100.066514,-31.21735 68.34547,-12.52649 85.72813,25.93705 87.82161,18.54263 32.89752,-61.65866 143.70399,-6.84121 70.90591,10.69932 23.83734,-9.36902 -23.37416,-3.9491 8.74739,-18.60413 -0.80082,-17.26149 55.00835,-59.38779 99.26034,5.17296 31.44754,-50.87055 139.74677,3.55568 44.90125,11.84737 52.81723,-58.6745 101.1799,12.8851 43.6975,-0.1751 51.66917,-90.55706 202.91916,0.9384 72.53782,5.0546 43.37383,-16.39565 -4.69203,16.2735 2.58852,-3.2938 54.58269,-46.45411 116.28531,-72.56361 194.785,-33.74619 19.09577,-14.30118 68.35697,0.12406 79.83112,24.58449 32.98288,-34.79802 73.39801,-3.2201 69.96899,0.42031 18.05117,-3.76959 66.48222,-25.4323 75.20196,43.99879 -6.81122,2.2855 3.0682,3.3175 -0.6004,4.2817 -19.86817,5.2224 -68.84934,-0.7219 -92.73381,2.25 -303.27396,0.364 -606.54793,0.728 -909.82188951027501,1.092 C 0.35962449,1042.7377 0.38487449,1034.8267 1.4041135,1026.9408 Z"
         style="fill:url(#linearGradient3766);fill-opacity:1;stroke:#000000;stroke-width:0;stroke-linecap:butt;stroke-linejoin:miter;stroke-miterlimit:4;stroke-dasharray:none;stroke-opacity:1" />
      <path
         style="fill:url(#linearGradient3349);fill-opacity:1;stroke:#000000;stroke-width:0;stroke-linecap:butt;stroke-linejoin:miter;stroke-miterlimit:4;stroke-dasharray:none;stroke-opacity:1"
         d="m 934.59366,1021.0584 c 5.79035,-12.0863 23.78525,-24.65477 51.43805,-17.2099 9.6553,-43.88773 64.03039,-61.13225 100.06649,-31.2173 68.3455,-12.52649 85.7282,25.93702 87.8217,18.54263 32.8975,-61.65866 143.7039,-6.8412 70.9059,10.69927 23.8373,-9.36897 -23.3742,-3.94907 8.7474,-18.60408 -0.8009,-17.26149 55.0083,-59.38779 99.2603,5.17291 31.4475,-50.8705 139.7468,3.5557 44.9012,11.84737 52.8173,-58.67445 101.1799,12.8851 43.6975,-0.1751 51.6692,-90.55701 202.9192,0.9384 72.5379,5.0546 43.3738,-16.39557 -4.6921,16.2735 2.5885,-3.2938 54.5827,-46.45406 116.2853,-72.56356 194.785,-33.74614 19.0958,-14.30118 68.357,0.12406 79.8311,24.58447 32.9829,-34.798 73.3981,-3.2201 69.969,0.4203 18.0512,-3.7696 66.4823,-25.43227 75.202,43.99877 -6.8112,2.2855 3.0682,3.3175 -0.6004,4.2817 -19.8682,5.2224 -68.8493,-0.7219 -92.7338,2.25 -303.274,0.364 -606.548,0.728 -909.82195,1.092 0.35962,-7.9008 0.38487,-15.8118 1.40411,-23.6977 z"
         id="path3345"
         inkscape:connector-curvature="0"
         sodipodi:nodetypes="cccccccccccccccsccc" />
    </g>
  </g>
</svg>
